<svg xmlns="http://www.w3.org/2000/svg" width="480" height="400" fill="none"><rect width="480" height="400" fill="#fff" rx="4"/><path stroke="#E6E6E6" d="M0 48.5h480"/><path fill="#000" d="M45.5 29h-2.71v-8h2.765c.794 0 1.476.16 2.047.48a3.212 3.212 0 0 1 1.32 1.372c.307.596.46 1.31.46 2.14 0 .834-.154 1.55-.464 2.149a3.212 3.212 0 0 1-1.332 1.379c-.578.32-1.273.48-2.086.48Zm-1.262-1.254h1.192c.557 0 1.022-.101 1.394-.305a1.95 1.95 0 0 0 .84-.918c.188-.408.281-.919.281-1.53 0-.613-.093-1.12-.28-1.524a1.918 1.918 0 0 0-.833-.91c-.365-.204-.818-.305-1.36-.305h-1.234v5.492Zm9.115 1.371c-.601 0-1.12-.125-1.558-.375a2.54 2.54 0 0 1-1.004-1.07c-.234-.464-.351-1.01-.351-1.637 0-.617.117-1.159.351-1.625.237-.469.568-.833.992-1.094.425-.263.923-.394 1.496-.394.37 0 .719.06 1.047.18.33.117.623.299.875.546.255.248.456.563.602.946.146.38.219.833.219 1.36v.433h-4.919v-.953h3.563a1.521 1.521 0 0 0-.176-.723 1.278 1.278 0 0 0-.48-.504 1.35 1.35 0 0 0-.711-.184c-.29 0-.543.07-.762.211-.219.138-.39.32-.512.547-.12.224-.18.47-.183.739v.832c0 .349.064.648.191.898.128.247.306.438.535.57.23.13.498.196.805.196.206 0 .392-.029.559-.086a1.24 1.24 0 0 0 .433-.262 1.09 1.09 0 0 0 .278-.426l1.32.149a2.058 2.058 0 0 1-.477.914 2.322 2.322 0 0 1-.89.601 3.41 3.41 0 0 1-1.242.211Zm8.607-4.531-1.29.14c-.036-.13-.1-.252-.19-.367a.95.95 0 0 0-.36-.277 1.31 1.31 0 0 0-.555-.105c-.294 0-.541.063-.742.191-.198.128-.295.293-.293.496a.519.519 0 0 0 .192.426c.133.11.351.2.656.27l1.023.218c.568.123.99.317 1.266.582.279.266.42.613.422 1.043a1.631 1.631 0 0 1-.332 1c-.216.287-.517.51-.902.672a3.412 3.412 0 0 1-1.329.242c-.734 0-1.325-.154-1.773-.46a1.853 1.853 0 0 1-.8-1.294l1.378-.133c.063.271.195.476.398.614.204.138.468.207.794.207.335 0 .605-.07.808-.207.206-.138.309-.309.309-.512a.533.533 0 0 0-.2-.426c-.13-.112-.333-.198-.609-.258l-1.023-.214c-.576-.12-1.002-.322-1.278-.606-.276-.286-.413-.648-.41-1.086-.002-.37.098-.69.3-.96a1.97 1.97 0 0 1 .856-.634c.368-.15.79-.226 1.27-.226.703 0 1.256.15 1.66.45.406.299.658.704.754 1.214ZM63.255 29v-6h1.414v6h-1.414Zm.71-6.852a.825.825 0 0 1-.577-.222.718.718 0 0 1-.242-.543.71.71 0 0 1 .242-.543.817.817 0 0 1 .578-.227c.226 0 .42.076.578.227a.71.71 0 0 1 .242.543c0 .21-.08.392-.242.543a.816.816 0 0 1-.578.222Zm4.767 9.227c-.507 0-.944-.069-1.308-.207a2.323 2.323 0 0 1-.88-.547 1.894 1.894 0 0 1-.46-.762l1.273-.308c.058.117.141.233.25.347.11.118.257.214.442.29.187.078.423.117.707.117.4 0 .733-.098.996-.293.263-.193.395-.51.395-.953v-1.137h-.07a2.01 2.01 0 0 1-.321.45 1.641 1.641 0 0 1-.55.386c-.228.104-.513.156-.856.156-.461 0-.88-.108-1.254-.324-.373-.219-.67-.544-.89-.977-.22-.435-.329-.979-.329-1.633 0-.658.11-1.214.328-1.668.221-.455.52-.8.895-1.035a2.3 2.3 0 0 1 1.254-.355c.351 0 .64.06.867.18.229.117.411.259.547.425.135.164.238.32.308.465h.078V23h1.395v6.098c0 .513-.123.937-.367 1.273-.245.336-.58.587-1.004.754-.425.167-.906.25-1.446.25Zm.012-3.57c.3 0 .555-.073.766-.22.21-.145.37-.355.48-.628.11-.273.164-.602.164-.984a2.75 2.75 0 0 0-.164-.992 1.416 1.416 0 0 0-.476-.66 1.233 1.233 0 0 0-.77-.239c-.315 0-.578.082-.789.246-.21.164-.37.39-.477.676-.106.284-.16.607-.16.969 0 .367.054.689.16.965.11.273.27.486.481.64.213.151.475.227.785.227Zm5.668-2.32V29h-1.414v-6h1.352v1.02h.07c.138-.336.358-.603.66-.801.305-.198.681-.297 1.129-.297.414 0 .775.088 1.082.265.31.178.55.434.719.77.172.336.256.744.254 1.223V29H76.85v-3.602c0-.4-.105-.714-.313-.941-.206-.227-.49-.34-.855-.34-.248 0-.468.055-.66.164-.19.107-.34.262-.45.465a1.57 1.57 0 0 0-.16.738ZM82.492 29v-8h3.063c.578 0 1.058.091 1.441.273.386.18.673.426.863.739.193.312.29.666.29 1.062 0 .326-.063.604-.188.836-.125.23-.293.416-.504.559a2.13 2.13 0 0 1-.707.308v.078c.284.016.556.103.816.262.263.156.478.378.645.664.167.287.25.633.25 1.04 0 .413-.1.786-.3 1.116-.201.329-.503.588-.907.778-.404.19-.912.285-1.523.285h-3.239Zm1.45-1.21H85.5c.526 0 .905-.101 1.137-.302a.987.987 0 0 0 .351-.781 1.196 1.196 0 0 0-.675-1.094 1.661 1.661 0 0 0-.774-.168h-1.598v2.344Zm0-3.388h1.433c.25 0 .475-.045.676-.136.2-.094.358-.226.472-.395.118-.172.176-.375.176-.61 0-.31-.11-.564-.328-.765-.216-.2-.538-.3-.965-.3h-1.465v2.206Zm9.541 2.075V23h1.414v6h-1.37v-1.066h-.063c-.135.335-.358.61-.668.824-.307.213-.686.32-1.137.32-.393 0-.74-.087-1.043-.262a1.82 1.82 0 0 1-.703-.77c-.17-.338-.254-.747-.254-1.226V23h1.414v3.602c0 .38.104.682.313.906.208.224.482.336.82.336.208 0 .41-.051.605-.153.196-.101.356-.252.481-.453.128-.203.191-.457.191-.761Zm5.095 2.628a2.27 2.27 0 0 1-1.266-.363c-.372-.242-.666-.594-.882-1.055-.217-.46-.325-1.02-.325-1.68 0-.666.11-1.228.329-1.687.22-.46.52-.808.894-1.043a2.3 2.3 0 0 1 1.254-.355c.352 0 .64.06.867.18.227.117.407.259.54.425.132.164.235.32.308.465h.058V21h1.418v8h-1.39v-.945h-.086c-.073.146-.179.3-.316.465-.139.161-.32.299-.547.414-.227.114-.512.171-.856.171Zm.395-1.16c.3 0 .554-.08.765-.242.211-.164.371-.392.481-.683.109-.292.164-.632.164-1.02a2.84 2.84 0 0 0-.164-1.012 1.442 1.442 0 0 0-.477-.668 1.232 1.232 0 0 0-.77-.238c-.314 0-.578.082-.788.246-.211.164-.37.39-.477.68-.107.289-.16.62-.16.992 0 .375.053.71.16 1.004.11.292.27.522.48.691.214.167.476.25.786.25Zm6.534 1.16c-.472 0-.893-.12-1.266-.363-.372-.242-.666-.594-.883-1.055-.216-.46-.324-1.02-.324-1.68 0-.666.11-1.228.328-1.687.222-.46.52-.808.895-1.043a2.3 2.3 0 0 1 1.254-.355c.351 0 .64.06.867.18.226.117.406.259.539.425.133.164.236.32.309.465h.058V21h1.418v8h-1.39v-.945h-.086c-.073.146-.179.3-.317.465-.138.161-.32.299-.547.414-.226.114-.511.171-.855.171Zm.394-1.16c.3 0 .555-.08.766-.242a1.51 1.51 0 0 0 .48-.683c.11-.292.165-.632.165-1.02s-.055-.725-.165-1.012a1.433 1.433 0 0 0-.476-.668 1.232 1.232 0 0 0-.77-.238c-.315 0-.578.082-.789.246a1.49 1.49 0 0 0-.476.68c-.107.289-.16.62-.16.992 0 .375.053.71.16 1.004.109.292.269.522.48.691.214.167.475.25.785.25Zm5.187 3.305a2.854 2.854 0 0 1-.922-.148l.328-1.102c.206.06.389.088.551.086a.678.678 0 0 0 .426-.152c.125-.097.23-.258.316-.485l.121-.324L109.732 23h1.5l1.383 4.531h.063L114.064 23h1.504l-2.402 6.727c-.112.317-.26.59-.445.816-.185.23-.412.404-.68.523-.266.123-.583.184-.953.184Z"/><g clip-path="url(#a)"><rect width="16" height="16" x="18" y="17" fill="#B0F2AE" rx="2"/><g filter="url(#b)"><ellipse cx="26.07" cy="26.078" fill="#000" fill-opacity=".5" rx="4.271" ry="4.12"/></g><path fill="#1A1A1A" d="M30.912 21.668c-.24-.901-.805-2.172-2.822-3.12-3.332-1.567-5.579 1.76-5.579 1.76-.898-.099-1.384.257-1.579 1.093-.166.715.058 2.111.18 2.646l.664 3.64.64-3.23c.63-2.125 1.589-2.99 1.589-2.99l3.044-.25 3.23 6.16.627-3.645a6.28 6.28 0 0 0 .088-1.402 3.595 3.595 0 0 0-.082-.662Z"/><path fill="#F3A396" d="M31.627 26.938a.999.999 0 0 0-1-.999h-.499c-.59 0-1.07.479-1.07 1.07v.4c0 .567.46 1.027 1.028 1.027h.042c.828 0 1.498-.671 1.498-1.498Z"/><path fill="url(#c)" fill-opacity=".2" d="M31.627 26.938a.999.999 0 0 0-1-.999h-.499c-.59 0-1.07.479-1.07 1.07v.4c0 .567.46 1.027 1.028 1.027h.042c.828 0 1.498-.671 1.498-1.498Z"/><ellipse cx="30.51" cy="27.192" fill="#D26665" fill-opacity=".5" rx=".58" ry=".829" transform="rotate(21.735 30.51 27.192)"/><path fill="#F3A396" d="M20.391 26.938c0-.552.448-.999.999-.999h.5c.59 0 1.07.479 1.07 1.07v.4c0 .567-.46 1.027-1.028 1.027h-.043c-.827 0-1.498-.671-1.498-1.498Z"/><path fill="url(#d)" fill-opacity=".2" d="M20.391 26.938c0-.552.448-.999.999-.999h.5c.59 0 1.07.479 1.07 1.07v.4c0 .567-.46 1.027-1.028 1.027h-.043c-.827 0-1.498-.671-1.498-1.498Z"/><ellipse cx=".58" cy=".829" fill="#D26665" fill-opacity=".5" rx=".58" ry=".829" transform="scale(-1 1) rotate(21.735 -79.124 -43.515)"/><path fill="#F3A396" d="M21.55 24.64c0-.417 0-.625.02-.8A3.21 3.21 0 0 1 24.41 21c.174-.019.383-.019.799-.019h1.582c.416 0 .625 0 .8.02a3.21 3.21 0 0 1 2.84 2.839c.018.175.018.383.018.8v1.647a4.45 4.45 0 1 1-8.899 0v-1.648Z"/><path fill="url(#e)" fill-opacity=".2" d="M21.55 24.64c0-.417 0-.625.02-.8A3.21 3.21 0 0 1 24.41 21c.174-.019.383-.019.799-.019h1.582c.416 0 .625 0 .8.02a3.21 3.21 0 0 1 2.84 2.839c.018.175.018.383.018.8v1.647a4.45 4.45 0 1 1-8.899 0v-1.648Z"/><path fill="#1A1A1A" d="M24.083 25.81a.37.37 0 0 1 .37-.37h.08a.37.37 0 0 1 .37.37v.182a.41.41 0 1 1-.82 0v-.182ZM27.025 25.81a.37.37 0 0 1 .37-.37h.08a.37.37 0 0 1 .37.37v.182a.41.41 0 1 1-.82 0v-.182Z"/><ellipse cx="25.947" cy="27.268" fill="#D26665" rx=".597" ry=".187"/><path fill="#1A1A1A" fill-rule="evenodd" d="M24.202 24.56c-.093.02-.175.053-.296.117a.268.268 0 0 1-.252-.472c.146-.078.278-.135.437-.168.154-.033.322-.042.536-.042a.268.268 0 0 1 0 .535c-.205 0-.327.01-.425.03Z" clip-rule="evenodd"/><path fill="#1A1A1A" fill-rule="evenodd" d="M24.189 24.576a.844.844 0 0 0-.283.101.268.268 0 0 1-.252-.472 1.37 1.37 0 0 1 .45-.157c.15-.024.317-.026.523-.026a.267.267 0 1 1 0 .535c-.213 0-.337.003-.438.019ZM27.718 24.56c.093.02.175.053.296.117a.267.267 0 1 0 .252-.472 1.602 1.602 0 0 0-.437-.168 2.576 2.576 0 0 0-.536-.042.267.267 0 1 0 0 .535c.205 0 .327.01.425.03Z" clip-rule="evenodd"/><path fill="#1A1A1A" fill-rule="evenodd" d="M27.731 24.576c.092.014.17.04.283.101a.267.267 0 1 0 .252-.472 1.37 1.37 0 0 0-.45-.157 3.402 3.402 0 0 0-.523-.026.267.267 0 1 0 0 .535c.213 0 .337.003.438.019Z" clip-rule="evenodd"/><path fill="#1A1A1A" d="M29.884 20.803c-.11.038-3.673-.981-3.673-.981l-3.126.981.001.005c-2.749.768-1.537 3.455-1.537 3.455 1.13-.6 1.048-1.829 1.262-2.714.5.679 2.416 1.915 4.773 1.868 2.414-.048 2.687-1.018 2.687-1.018s-.276-1.634-.387-1.596Z"/><path fill="#613030" d="M27.65 28.107c-.057-.063-.775-.1-1.7-.1-.925 0-1.642.037-1.7.1-.065.041.342 1.502 1.7 1.502 1.358 0 1.765-1.46 1.7-1.502Z"/><mask id="f" width="4" height="2" x="24" y="28" maskUnits="userSpaceOnUse" style="mask-type:alpha"><path fill="#000" d="M27.65 28.107c-.057-.063-.775-.1-1.7-.1-.925 0-1.642.037-1.7.1-.065.041.342 1.502 1.7 1.502 1.358 0 1.765-1.46 1.7-1.502Z"/></mask><g mask="url(#f)"><path fill="#D23D25" d="M27.425 29.102c-.37.578-.92 1.13-1.522 1.106-.654-.024-1.136-.549-1.428-1.049.51-.447 1.86-.954 2.95-.057Z"/><path fill="#fff" d="M27.231 27.732c-.01.407-.102.407-.102.407-.38.19-1.833.364-2.381 0-.058-.038-.068-.23-.08-.361a.141.141 0 0 1 .086-.037c.908-.055 2.066-.14 2.477-.009Z"/></g><path fill="#1A1A1A" d="M19.323 28.643a.642.642 0 0 1 .642-.671H32.12c.366 0 .658.305.642.67l-.299 6.617a.642.642 0 0 1-.641.613h-11.56a.642.642 0 0 1-.641-.613l-.299-6.616Z"/><circle cx="26.043" cy="31.922" r="1.257" fill="#363535"/><path fill="#fff" d="M26.243 32.388c-.038 0-.057-.02-.057-.057v-.841c0-.038.02-.057.057-.057.038 0 .057.02.057.057v.283a.223.223 0 0 1 .088-.055.377.377 0 0 1 .124-.018h.051c.09 0 .157.022.2.065.044.044.066.11.066.2v.157c0 .09-.022.157-.065.2-.044.044-.11.066-.2.066h-.052a.377.377 0 0 1-.124-.019.226.226 0 0 1-.088-.053v.015c0 .037-.019.056-.057.056Zm.269-.114h.051c.06 0 .1-.011.12-.032.021-.022.032-.062.032-.12v-.156c0-.06-.01-.1-.032-.12-.022-.021-.062-.032-.12-.032h-.051c-.06 0-.11.008-.15.023-.041.015-.062.038-.062.07v.273c0 .032.02.055.061.07.04.016.091.024.15.024ZM25.54 32.388c-.09 0-.156-.022-.2-.066-.044-.043-.065-.11-.065-.2v-.156c0-.09.021-.157.065-.2.044-.044.11-.066.2-.066h.263v-.21c0-.038.02-.057.057-.057.038 0 .057.02.057.057v.84c0 .038-.019.058-.057.058-.038 0-.057-.02-.057-.057v-.01a.204.204 0 0 1-.083.05.415.415 0 0 1-.128.017h-.052Zm0-.114h.052c.06 0 .11-.008.15-.023.041-.016.061-.04.061-.07v-.367h-.263c-.058 0-.098.01-.12.033-.02.02-.032.06-.032.119v.156c0 .059.011.099.032.12.022.021.062.032.12.032Z"/></g><path fill="#000" d="M244.263 152.565c-.068-.687-.361-1.221-.878-1.602s-1.218-.571-2.105-.571c-.602 0-1.111.085-1.525.256-.415.164-.733.395-.955.69a1.663 1.663 0 0 0-.324 1.006 1.44 1.44 0 0 0 .196.818c.148.233.35.435.605.605.256.165.551.31.887.435.335.119.693.221 1.074.307l1.568.375c.761.17 1.46.397 2.096.681a6.356 6.356 0 0 1 1.654 1.049c.466.414.826.903 1.082 1.466.262.562.395 1.207.401 1.934-.006 1.068-.279 1.995-.818 2.779-.535.778-1.307 1.383-2.319 1.815-1.005.426-2.218.639-3.639.639-1.409 0-2.636-.216-3.682-.648-1.039-.431-1.852-1.071-2.437-1.917-.58-.852-.884-1.906-.912-3.162h3.571c.04.585.207 1.074.503 1.466.301.386.701.679 1.201.878.506.193 1.077.289 1.714.289.625 0 1.167-.091 1.627-.272.466-.182.827-.435 1.083-.759.255-.324.383-.696.383-1.116 0-.392-.116-.722-.349-.989-.227-.267-.563-.494-1.006-.682a10.204 10.204 0 0 0-1.611-.511l-1.9-.477c-1.472-.358-2.634-.918-3.486-1.679-.852-.762-1.276-1.787-1.27-3.077-.006-1.057.276-1.98.844-2.77.574-.79 1.361-1.406 2.361-1.849 1-.444 2.136-.665 3.409-.665 1.295 0 2.426.221 3.392.665.971.443 1.727 1.059 2.267 1.849.54.79.818 1.705.835 2.744h-3.537Zm12.156 12.691c-1.347 0-2.506-.273-3.478-.818a5.61 5.61 0 0 1-2.233-2.336c-.522-1.011-.784-2.207-.784-3.588 0-1.346.262-2.528.784-3.545a5.798 5.798 0 0 1 2.208-2.378c.954-.568 2.074-.852 3.358-.852.863 0 1.667.139 2.412.417.75.273 1.403.685 1.96 1.236.562.551 1 1.244 1.312 2.08.313.829.469 1.801.469 2.914v.998h-11.054v-2.25h7.637c0-.523-.114-.986-.341-1.39a2.457 2.457 0 0 0-.946-.946c-.398-.233-.861-.349-1.39-.349-.551 0-1.039.128-1.465.383-.421.25-.75.588-.989 1.015-.239.42-.361.889-.367 1.406v2.139c0 .648.12 1.207.358 1.679a2.62 2.62 0 0 0 1.032 1.091c.443.256.968.383 1.576.383a3.42 3.42 0 0 0 1.108-.17c.336-.114.622-.284.861-.511.239-.228.421-.506.546-.836l3.357.222a4.579 4.579 0 0 1-1.048 2.114c-.523.596-1.199 1.062-2.028 1.397-.824.33-1.776.495-2.855.495Zm12.008-17.711V165h-3.63v-17.455h3.63Zm8.874 17.711c-1.346 0-2.505-.273-3.477-.818a5.61 5.61 0 0 1-2.233-2.336c-.522-1.011-.784-2.207-.784-3.588 0-1.346.262-2.528.784-3.545a5.798 5.798 0 0 1 2.208-2.378c.954-.568 2.074-.852 3.358-.852.863 0 1.667.139 2.412.417.75.273 1.403.685 1.96 1.236.562.551 1 1.244 1.312 2.08.313.829.469 1.801.469 2.914v.998h-11.054v-2.25h7.636c0-.523-.113-.986-.341-1.39a2.444 2.444 0 0 0-.946-.946c-.397-.233-.86-.349-1.389-.349a2.8 2.8 0 0 0-1.466.383c-.42.25-.75.588-.988 1.015-.239.42-.361.889-.367 1.406v2.139c0 .648.12 1.207.358 1.679.245.472.588.835 1.031 1.091.444.256.969.383 1.577.383a3.42 3.42 0 0 0 1.108-.17c.335-.114.622-.284.861-.511.239-.228.42-.506.545-.836l3.358.222a4.588 4.588 0 0 1-1.048 2.114c-.523.596-1.199 1.062-2.028 1.397-.824.33-1.776.495-2.856.495Zm14.293 0c-1.341 0-2.494-.284-3.46-.853a5.757 5.757 0 0 1-2.216-2.386c-.511-1.017-.767-2.187-.767-3.511 0-1.341.258-2.517.775-3.529a5.772 5.772 0 0 1 2.225-2.378c.96-.573 2.102-.86 3.426-.86 1.142 0 2.142.207 3 .622.858.415 1.537.997 2.037 1.747.5.75.776 1.631.827 2.642h-3.426c-.097-.653-.353-1.179-.767-1.577-.41-.403-.947-.605-1.611-.605-.563 0-1.054.154-1.475.46-.414.302-.738.742-.971 1.321-.233.58-.35 1.282-.35 2.106 0 .835.114 1.545.341 2.13.233.585.56 1.031.98 1.338.421.307.912.461 1.475.461.414 0 .787-.086 1.116-.256.335-.171.611-.418.827-.742.221-.329.366-.724.435-1.184h3.426c-.057 1-.33 1.88-.818 2.642-.483.755-1.151 1.346-2.003 1.772-.853.427-1.861.64-3.026.64Zm15.134-13.347v2.727h-7.883v-2.727h7.883Zm-6.093-3.136h3.63v12.204c0 .335.051.597.154.784.102.182.244.31.426.384.187.074.403.111.648.111.17 0 .34-.015.511-.043l.392-.077.571 2.702c-.182.057-.438.122-.767.196-.33.08-.73.128-1.202.145-.875.034-1.642-.082-2.301-.349-.653-.268-1.162-.682-1.525-1.245-.364-.562-.543-1.273-.537-2.13v-12.682Zm17.746 16.474c-.835 0-1.58-.145-2.233-.435a3.6 3.6 0 0 1-1.551-1.303c-.375-.58-.563-1.302-.563-2.165 0-.728.134-1.338.401-1.833a3.246 3.246 0 0 1 1.091-1.193 5.31 5.31 0 0 1 1.568-.682c.591-.153 1.21-.261 1.858-.324a46.616 46.616 0 0 0 1.841-.221c.466-.074.804-.182 1.014-.324.21-.142.316-.352.316-.631v-.051c0-.54-.171-.957-.512-1.253-.335-.295-.812-.443-1.432-.443-.653 0-1.173.145-1.559.435a1.996 1.996 0 0 0-.767 1.074l-3.358-.273a4.563 4.563 0 0 1 1.005-2.063c.5-.585 1.145-1.034 1.935-1.346.795-.318 1.716-.477 2.761-.477.728 0 1.424.085 2.088.255a5.472 5.472 0 0 1 1.782.793c.522.358.934.818 1.235 1.381.302.556.452 1.224.452 2.002V165h-3.443v-1.815h-.102a3.69 3.69 0 0 1-.844 1.082 3.9 3.9 0 0 1-1.27.724c-.494.171-1.065.256-1.713.256Zm1.04-2.506c.534 0 1.005-.105 1.415-.315.409-.216.73-.506.963-.869.233-.364.349-.776.349-1.236v-1.389c-.114.074-.27.142-.469.204a8.41 8.41 0 0 1-.656.162c-.244.046-.489.088-.733.128l-.665.094a4.481 4.481 0 0 0-1.116.298 1.799 1.799 0 0 0-.742.554c-.176.227-.264.512-.264.852 0 .495.179.873.537 1.134.364.256.824.383 1.381.383Zm19.528 2.472a4.945 4.945 0 0 1-2.702-.767c-.801-.517-1.438-1.276-1.909-2.276-.466-1.005-.699-2.238-.699-3.698 0-1.5.241-2.748.724-3.742.483-1 1.125-1.747 1.926-2.241.807-.5 1.691-.75 2.651-.75.733 0 1.344.125 1.832.375.495.244.892.551 1.194.92.306.364.539.722.698 1.074h.111v-6.563h3.622V165h-3.579v-2.097h-.154c-.17.364-.412.725-.724 1.083a3.601 3.601 0 0 1-1.202.878c-.488.233-1.085.349-1.789.349Zm1.15-2.889c.585 0 1.08-.159 1.483-.477.409-.324.722-.776.938-1.356.221-.579.332-1.258.332-2.036 0-.779-.108-1.455-.324-2.029-.216-.574-.528-1.017-.937-1.329-.41-.313-.907-.469-1.492-.469-.597 0-1.099.162-1.508.486-.41.323-.719.772-.929 1.346-.211.574-.316 1.239-.316 1.995 0 .761.105 1.434.316 2.019.215.58.525 1.035.929 1.364.409.324.911.486 1.508.486Zm15.249 2.932c-1.346 0-2.505-.273-3.477-.818a5.61 5.61 0 0 1-2.233-2.336c-.523-1.011-.784-2.207-.784-3.588 0-1.346.261-2.528.784-3.545a5.798 5.798 0 0 1 2.208-2.378c.954-.568 2.073-.852 3.357-.852.864 0 1.668.139 2.412.417a5.36 5.36 0 0 1 1.961 1.236c.562.551 1 1.244 1.312 2.08.313.829.469 1.801.469 2.914v.998h-11.054v-2.25h7.636c0-.523-.113-.986-.341-1.39a2.444 2.444 0 0 0-.946-.946c-.397-.233-.86-.349-1.389-.349a2.8 2.8 0 0 0-1.466.383c-.42.25-.75.588-.988 1.015-.239.42-.361.889-.367 1.406v2.139c0 .648.119 1.207.358 1.679.244.472.588.835 1.031 1.091.444.256.969.383 1.577.383.403 0 .773-.056 1.108-.17.335-.114.622-.284.861-.511.238-.228.42-.506.545-.836l3.358.222a4.588 4.588 0 0 1-1.048 2.114c-.523.596-1.199 1.062-2.029 1.397-.823.33-1.775.495-2.855.495Zm19.27-9.614-3.324.205a1.708 1.708 0 0 0-.366-.767 1.946 1.946 0 0 0-.742-.554c-.301-.142-.661-.214-1.082-.214-.562 0-1.037.12-1.423.358-.387.233-.58.546-.58.938 0 .312.125.577.375.793.25.215.679.389 1.287.519l2.369.478c1.273.261 2.222.682 2.847 1.261.625.58.938 1.341.938 2.284 0 .858-.253 1.611-.759 2.259-.5.647-1.187 1.153-2.062 1.517-.87.358-1.873.537-3.009.537-1.733 0-3.114-.361-4.142-1.083-1.023-.727-1.622-1.716-1.798-2.966l3.571-.187c.108.528.369.932.784 1.21.415.273.946.409 1.594.409.636 0 1.147-.122 1.534-.366.392-.25.591-.571.596-.963-.005-.33-.145-.6-.417-.81-.273-.216-.694-.381-1.262-.494l-2.267-.452c-1.278-.256-2.23-.699-2.855-1.33-.619-.63-.929-1.434-.929-2.412 0-.84.227-1.565.682-2.173.46-.608 1.105-1.077 1.935-1.406.835-.33 1.812-.494 2.931-.494 1.654 0 2.955.349 3.904 1.048.954.699 1.511 1.65 1.67 2.855Zm2.585 9.358v-13.091h3.63V165h-3.63Zm1.824-14.778c-.54 0-1.003-.179-1.39-.537-.38-.364-.571-.799-.571-1.304 0-.5.191-.929.571-1.287.387-.364.85-.546 1.39-.546.539 0 1 .182 1.38.546.387.358.58.787.58 1.287 0 .505-.193.94-.58 1.304-.38.358-.841.537-1.38.537Zm10.613 19.96c-1.177 0-2.185-.162-3.026-.486-.835-.318-1.5-.753-1.994-1.304a3.993 3.993 0 0 1-.963-1.858l3.358-.452c.102.262.264.506.485.733.222.228.515.409.878.546.37.142.818.213 1.347.213.79 0 1.44-.193 1.951-.58.518-.38.776-1.02.776-1.917v-2.395h-.153a3.46 3.46 0 0 1-.716 1.031c-.318.324-.728.588-1.228.793-.5.204-1.096.306-1.789.306-.983 0-1.878-.227-2.685-.681-.801-.461-1.44-1.162-1.918-2.105-.471-.949-.707-2.148-.707-3.597 0-1.483.242-2.722.724-3.716.483-.994 1.125-1.739 1.927-2.233a4.977 4.977 0 0 1 2.65-.741c.733 0 1.347.125 1.841.375.494.244.892.551 1.193.92.307.364.543.722.708 1.074h.136v-2.199h3.605v13.219c0 1.113-.273 2.045-.818 2.795-.546.75-1.301 1.313-2.267 1.688-.96.38-2.065.571-3.315.571Zm.076-8.097c.585 0 1.08-.145 1.483-.434.409-.296.722-.716.938-1.262.221-.551.332-1.21.332-1.977 0-.767-.108-1.432-.324-1.994-.216-.569-.528-1.009-.937-1.321-.409-.313-.907-.469-1.492-.469-.596 0-1.099.162-1.508.486-.409.318-.719.761-.929 1.329-.21.568-.316 1.225-.316 1.969 0 .756.106 1.409.316 1.96.216.546.525.969.929 1.27.409.295.912.443 1.508.443Zm12.844-4.653V165h-3.631v-13.091h3.461v2.31h.153a3.654 3.654 0 0 1 1.457-1.807c.682-.449 1.509-.673 2.48-.673.91 0 1.702.199 2.378.596a4.057 4.057 0 0 1 1.577 1.705c.375.733.563 1.608.563 2.625V165h-3.631v-7.688c.006-.801-.199-1.426-.614-1.874-.415-.455-.986-.682-1.713-.682-.489 0-.92.105-1.295.315a2.2 2.2 0 0 0-.87.92c-.204.398-.309.878-.315 1.441Zm15.245 5.182-.094.937c-.074.75-.216 1.497-.426 2.242-.204.75-.42 1.429-.648 2.037-.221.608-.4 1.085-.537 1.431h-2.352c.085-.335.202-.804.35-1.406.147-.596.287-1.267.417-2.011.131-.745.213-1.503.247-2.276l.043-.954h3Zm-179.346 34.633c-.835 0-1.579-.145-2.233-.435a3.6 3.6 0 0 1-1.551-1.303c-.375-.58-.562-1.302-.562-2.165 0-.728.133-1.338.4-1.833a3.246 3.246 0 0 1 1.091-1.193 5.31 5.31 0 0 1 1.568-.682c.591-.153 1.21-.261 1.858-.324a46.384 46.384 0 0 0 1.841-.221c.466-.074.804-.182 1.014-.324.211-.142.316-.352.316-.631v-.051c0-.54-.171-.957-.512-1.253-.335-.295-.812-.443-1.432-.443-.653 0-1.173.145-1.559.435a1.996 1.996 0 0 0-.767 1.074l-3.358-.273a4.563 4.563 0 0 1 1.005-2.063c.5-.585 1.145-1.034 1.935-1.346.796-.318 1.716-.477 2.762-.477a8.4 8.4 0 0 1 2.088.255c.67.171 1.264.435 1.781.793.523.358.934.818 1.236 1.381.301.556.451 1.224.451 2.002V197h-3.443v-1.815h-.102a3.69 3.69 0 0 1-.844 1.082 3.89 3.89 0 0 1-1.27.724c-.494.171-1.065.256-1.713.256Zm1.04-2.506c.534 0 1.006-.105 1.415-.315.409-.216.73-.506.963-.869.233-.364.349-.776.349-1.236v-1.389a1.91 1.91 0 0 1-.469.204 8.299 8.299 0 0 1-.656.162c-.244.046-.488.088-.733.128l-.665.094a4.481 4.481 0 0 0-1.116.298 1.79 1.79 0 0 0-.741.554c-.177.227-.265.512-.265.852 0 .495.179.873.537 1.134.364.256.824.383 1.381.383Zm12.78-5.309V197h-3.631v-13.091h3.46v2.31h.154a3.643 3.643 0 0 1 1.457-1.807c.682-.449 1.509-.673 2.48-.673.909 0 1.702.199 2.378.596a4.057 4.057 0 0 1 1.577 1.705c.375.733.562 1.608.562 2.625V197h-3.63v-7.688c.005-.801-.199-1.426-.614-1.874-.415-.455-.986-.682-1.713-.682-.489 0-.921.105-1.296.315-.369.21-.659.517-.869.92-.204.398-.31.878-.315 1.441Zm16.123 7.781a4.945 4.945 0 0 1-2.702-.767c-.801-.517-1.438-1.276-1.909-2.276-.466-1.005-.699-2.238-.699-3.698 0-1.5.241-2.748.724-3.742.483-1 1.125-1.747 1.927-2.241.806-.5 1.69-.75 2.65-.75.733 0 1.344.125 1.832.375.495.244.893.551 1.194.92.306.364.539.722.699 1.074h.11v-6.563h3.622V197h-3.579v-2.097h-.153a4.68 4.68 0 0 1-.725 1.083 3.601 3.601 0 0 1-1.202.878c-.488.233-1.085.349-1.789.349Zm1.15-2.889c.585 0 1.08-.159 1.483-.477.409-.324.722-.776.938-1.356.221-.579.332-1.258.332-2.036 0-.779-.108-1.455-.324-2.029-.216-.574-.528-1.017-.937-1.329-.409-.313-.907-.469-1.492-.469-.596 0-1.099.162-1.508.486-.409.323-.719.772-.929 1.346-.211.574-.316 1.239-.316 1.995 0 .761.105 1.434.316 2.019.216.58.525 1.035.929 1.364.409.324.912.486 1.508.486Zm18.597-14.779V197h-3.691v-17.455h3.691Zm5.303 0v6.631h-2.591v-6.631h2.591Zm6.311 0V197h-3.631v-17.455h3.631Zm6.539 0V197h-3.63v-17.455h3.63ZM314.765 197v-13.091h3.52v2.284h.137c.238-.812.639-1.426 1.201-1.841.563-.42 1.21-.63 1.943-.63a5.414 5.414 0 0 1 1.142.127v3.222a4.655 4.655 0 0 0-.707-.136 6.322 6.322 0 0 0-.827-.06 2.9 2.9 0 0 0-1.431.349 2.577 2.577 0 0 0-.989.955c-.239.409-.358.881-.358 1.415V197h-3.631Zm15.177.256c-1.346 0-2.506-.273-3.477-.818a5.61 5.61 0 0 1-2.233-2.336c-.523-1.011-.784-2.207-.784-3.588 0-1.346.261-2.528.784-3.545s1.258-1.81 2.207-2.378c.955-.568 2.074-.852 3.358-.852.864 0 1.668.139 2.412.417.75.273 1.404.685 1.96 1.236.563.551 1 1.244 1.313 2.08.312.829.469 1.801.469 2.914v.998h-11.054v-2.25h7.636c0-.523-.114-.986-.341-1.39a2.444 2.444 0 0 0-.946-.946c-.398-.233-.861-.349-1.389-.349a2.8 2.8 0 0 0-1.466.383c-.42.25-.75.588-.989 1.015-.238.42-.36.889-.366 1.406v2.139c0 .648.119 1.207.358 1.679.244.472.588.835 1.031 1.091.443.256.969.383 1.577.383.403 0 .773-.056 1.108-.17.335-.114.622-.284.861-.511.238-.228.42-.506.545-.836l3.358.222a4.598 4.598 0 0 1-1.048 2.114c-.523.596-1.199 1.062-2.029 1.397-.824.33-1.775.495-2.855.495Zm20.231-13.347L345.596 197h-4.091l-4.576-13.091h3.835l2.719 9.367h.136l2.71-9.367h3.844ZM352.031 197v-13.091h3.631V197h-3.631Zm1.824-14.778c-.54 0-1.003-.179-1.389-.537-.381-.364-.571-.799-.571-1.304 0-.5.19-.929.571-1.287a1.953 1.953 0 0 1 1.389-.546c.54 0 1 .182 1.38.546.387.358.58.787.58 1.287 0 .505-.193.94-.58 1.304a1.94 1.94 0 0 1-1.38.537Zm10.681 15.034c-1.347 0-2.506-.273-3.477-.818a5.604 5.604 0 0 1-2.233-2.336c-.523-1.011-.784-2.207-.784-3.588 0-1.346.261-2.528.784-3.545a5.789 5.789 0 0 1 2.207-2.378c.955-.568 2.074-.852 3.358-.852.864 0 1.668.139 2.412.417.75.273 1.403.685 1.96 1.236.563.551 1 1.244 1.313 2.08.312.829.468 1.801.468 2.914v.998H359.49v-2.25h7.637c0-.523-.114-.986-.341-1.39a2.45 2.45 0 0 0-.946-.946c-.398-.233-.861-.349-1.389-.349a2.8 2.8 0 0 0-1.466.383c-.421.25-.75.588-.989 1.015a2.85 2.85 0 0 0-.366 1.406v2.139c0 .648.119 1.207.358 1.679.244.472.588.835 1.031 1.091.443.256.969.383 1.577.383.403 0 .772-.056 1.107-.17.336-.114.623-.284.861-.511.239-.228.421-.506.546-.836l3.358.222a4.59 4.59 0 0 1-1.049 2.114c-.522.596-1.198 1.062-2.028 1.397-.824.33-1.776.495-2.855.495Zm10.866-.256-3.562-13.091h3.673l2.029 8.796h.119l2.114-8.796h3.605l2.147 8.744h.111l1.994-8.744h3.665L387.743 197H383.9l-2.25-8.233h-.162l-2.25 8.233h-3.836Zm23.387 0v-13.091h3.63V197h-3.63Zm1.824-14.778c-.54 0-1.003-.179-1.39-.537-.38-.364-.571-.799-.571-1.304 0-.5.191-.929.571-1.287.387-.364.85-.546 1.39-.546.539 0 1 .182 1.38.546.387.358.58.787.58 1.287 0 .505-.193.94-.58 1.304-.38.358-.841.537-1.38.537Zm11.678 1.687v2.727h-7.884v-2.727h7.884Zm-6.094-3.136h3.631v12.204c0 .335.051.597.153.784.102.182.244.31.426.384.188.074.404.111.648.111.17 0 .341-.015.511-.043l.392-.077.571 2.702c-.181.057-.437.122-.767.196-.329.08-.73.128-1.201.145-.875.034-1.642-.082-2.301-.349a3.215 3.215 0 0 1-1.526-1.245c-.364-.562-.543-1.273-.537-2.13v-12.682Zm10.581 16.449a1.992 1.992 0 0 1-1.449-.597 1.988 1.988 0 0 1-.596-1.449c0-.557.198-1.034.596-1.432a1.995 1.995 0 0 1 1.449-.596c.546 0 1.023.199 1.432.596.409.398.614.875.614 1.432 0 .375-.097.719-.29 1.031a2.213 2.213 0 0 1-.742.742 1.952 1.952 0 0 1-1.014.273ZM234.686 239v-11.636h6.978v1.25h-5.568v3.931h5.045v1.25h-5.045V239h-1.41Zm12.114.182c-.788 0-1.479-.188-2.074-.563-.591-.375-1.053-.899-1.386-1.574-.33-.674-.494-1.462-.494-2.363 0-.909.164-1.703.494-2.381.333-.678.795-1.204 1.386-1.579.595-.375 1.286-.563 2.074-.563.788 0 1.477.188 2.068.563.595.375 1.057.901 1.387 1.579.333.678.5 1.472.5 2.381 0 .901-.167 1.689-.5 2.363-.33.675-.792 1.199-1.387 1.574-.591.375-1.28.563-2.068.563Zm0-1.205c.599 0 1.091-.153 1.477-.46.387-.307.673-.71.858-1.21.186-.5.279-1.042.279-1.625 0-.584-.093-1.127-.279-1.631a2.732 2.732 0 0 0-.858-1.221c-.386-.311-.878-.466-1.477-.466-.598 0-1.091.155-1.477.466-.387.31-.673.717-.858 1.221a4.672 4.672 0 0 0-.279 1.631c0 .583.093 1.125.279 1.625.185.5.471.903.858 1.21.386.307.879.46 1.477.46Zm6.001 1.023v-8.727h1.296v1.318h.091c.159-.432.447-.782.863-1.051a2.545 2.545 0 0 1 1.41-.404c.098 0 .221.002.369.006a5.5 5.5 0 0 1 .335.017v1.364a3.351 3.351 0 0 0-.312-.051 3.026 3.026 0 0 0-.506-.04c-.424 0-.803.089-1.136.267-.33.174-.591.417-.785.727a1.963 1.963 0 0 0-.284 1.051V239h-1.341Zm10.635 0v-11.636h1.341v4.295h.114c.098-.151.235-.345.409-.579.178-.239.432-.451.761-.637.334-.189.785-.284 1.353-.284.735 0 1.382.184 1.943.551.56.368.998.888 1.312 1.563.315.674.472 1.469.472 2.386 0 .924-.157 1.725-.472 2.403-.314.675-.75 1.197-1.306 1.569-.557.367-1.199.551-1.927.551-.56 0-1.009-.093-1.346-.279-.337-.189-.597-.403-.779-.642a8.61 8.61 0 0 1-.42-.602h-.159V239h-1.296Zm1.319-4.364c0 .659.096 1.241.289 1.745.194.5.476.892.847 1.176.371.28.826.42 1.364.42.56 0 1.028-.147 1.403-.443.379-.299.663-.701.852-1.204.193-.508.29-1.072.29-1.694 0-.613-.095-1.166-.284-1.659-.186-.496-.468-.888-.847-1.176-.375-.292-.846-.437-1.414-.437-.546 0-1.004.138-1.375.414-.372.273-.652.656-.841 1.148-.19.489-.284 1.059-.284 1.71Zm12.096 4.546c-.841 0-1.566-.186-2.176-.557a3.736 3.736 0 0 1-1.403-1.568c-.326-.674-.489-1.459-.489-2.352 0-.894.163-1.682.489-2.364.329-.686.788-1.22 1.375-1.602.591-.387 1.28-.58 2.068-.58.454 0 .903.076 1.346.227.444.152.847.398 1.211.739.363.337.653.784.869 1.341.216.557.324 1.242.324 2.057v.568h-6.727v-1.159h5.363c0-.493-.098-.932-.295-1.318a2.219 2.219 0 0 0-.83-.915c-.356-.224-.776-.335-1.261-.335-.534 0-.996.132-1.387.397a2.633 2.633 0 0 0-.892 1.023 3.01 3.01 0 0 0-.312 1.352v.773c0 .659.114 1.218.341 1.676.231.455.551.801.96 1.04.409.235.885.352 1.426.352.352 0 .671-.049.955-.147.288-.103.536-.254.744-.455.208-.205.369-.458.483-.761l1.295.363a2.86 2.86 0 0 1-.687 1.159c-.322.33-.72.587-1.193.773a4.425 4.425 0 0 1-1.597.273Zm11.835-6.955-1.204.341a2.253 2.253 0 0 0-.335-.585 1.63 1.63 0 0 0-.591-.477c-.25-.125-.57-.188-.96-.188-.535 0-.98.123-1.336.37-.352.242-.528.551-.528.926 0 .333.121.596.364.789.242.194.621.355 1.136.483l1.295.319c.781.189 1.362.479 1.745.869.382.386.574.884.574 1.494 0 .5-.144.947-.432 1.341-.284.394-.682.705-1.193.932-.512.227-1.107.341-1.785.341-.89 0-1.626-.193-2.21-.58-.583-.386-.952-.95-1.108-1.693l1.273-.318c.121.47.35.822.687 1.057.341.235.786.352 1.336.352.625 0 1.121-.133 1.488-.398.372-.269.557-.591.557-.966 0-.303-.106-.556-.318-.761-.212-.208-.538-.364-.977-.466l-1.455-.341c-.799-.189-1.386-.483-1.761-.88-.371-.402-.557-.904-.557-1.506 0-.493.138-.928.415-1.307a2.82 2.82 0 0 1 1.142-.892c.485-.216 1.034-.324 1.648-.324.863 0 1.541.189 2.034.568.496.379.848.879 1.056 1.5Zm5.973-1.954v1.136h-4.522v-1.136h4.522Zm-3.204-2.091h1.341v8.318c0 .379.055.663.165.852a.847.847 0 0 0 .431.375c.178.061.366.091.563.091.148 0 .269-.007.364-.023l.227-.045.273 1.205a2.74 2.74 0 0 1-.381.102 2.792 2.792 0 0 1-.619.057 2.7 2.7 0 0 1-1.114-.245 2.217 2.217 0 0 1-.898-.744c-.235-.333-.352-.754-.352-1.261v-8.682ZM301.176 239v-8.727h1.296v1.318h.091c.159-.432.447-.782.863-1.051a2.545 2.545 0 0 1 1.41-.404c.098 0 .221.002.369.006a5.5 5.5 0 0 1 .335.017v1.364a3.351 3.351 0 0 0-.312-.051 3.026 3.026 0 0 0-.506-.04c-.424 0-.803.089-1.136.267-.33.174-.591.417-.785.727a1.963 1.963 0 0 0-.284 1.051V239h-1.341Zm9.347.182c-.841 0-1.566-.186-2.176-.557a3.736 3.736 0 0 1-1.403-1.568c-.326-.674-.489-1.459-.489-2.352 0-.894.163-1.682.489-2.364.329-.686.787-1.22 1.375-1.602.59-.387 1.28-.58 2.068-.58.454 0 .903.076 1.346.227a3.35 3.35 0 0 1 1.211.739c.363.337.653.784.869 1.341.216.557.324 1.242.324 2.057v.568h-6.728v-1.159h5.364c0-.493-.098-.932-.295-1.318a2.226 2.226 0 0 0-.83-.915c-.356-.224-.776-.335-1.261-.335-.534 0-.996.132-1.387.397a2.633 2.633 0 0 0-.892 1.023 3.01 3.01 0 0 0-.312 1.352v.773c0 .659.113 1.218.341 1.676.231.455.551.801.96 1.04.409.235.884.352 1.426.352.352 0 .671-.049.955-.147.288-.103.536-.254.744-.455.208-.205.369-.458.483-.761l1.295.363a2.86 2.86 0 0 1-.687 1.159c-.322.33-.72.587-1.193.773a4.425 4.425 0 0 1-1.597.273Zm11.835-6.955-1.204.341a2.253 2.253 0 0 0-.335-.585 1.63 1.63 0 0 0-.591-.477c-.25-.125-.57-.188-.961-.188-.534 0-.979.123-1.335.37-.352.242-.528.551-.528.926 0 .333.121.596.363.789.243.194.622.355 1.137.483l1.295.319c.781.189 1.362.479 1.745.869.382.386.573.884.573 1.494 0 .5-.144.947-.431 1.341-.285.394-.682.705-1.194.932-.511.227-1.106.341-1.784.341-.89 0-1.627-.193-2.21-.58-.583-.386-.953-.95-1.108-1.693l1.273-.318c.121.47.35.822.687 1.057.341.235.786.352 1.336.352.625 0 1.121-.133 1.488-.398.371-.269.557-.591.557-.966 0-.303-.106-.556-.318-.761-.212-.208-.538-.364-.977-.466l-1.455-.341c-.799-.189-1.386-.483-1.761-.88-.372-.402-.557-.904-.557-1.506 0-.493.138-.928.415-1.307a2.82 2.82 0 0 1 1.142-.892c.485-.216 1.034-.324 1.647-.324.864 0 1.542.189 2.034.568.497.379.849.879 1.057 1.5Zm7.678 3.205v-5.159h1.341V239h-1.341v-1.477h-.091c-.205.443-.523.82-.955 1.13-.431.307-.977.461-1.636.461a2.92 2.92 0 0 1-1.454-.358c-.425-.243-.758-.606-1-1.091-.243-.489-.364-1.104-.364-1.847v-5.545h1.341v5.454c0 .637.178 1.144.534 1.523.36.379.818.568 1.375.568.333 0 .672-.085 1.017-.256.348-.17.64-.431.875-.784.239-.352.358-.801.358-1.346Zm5.138-8.068V239h-1.341v-11.636h1.341Zm6.251 2.909v1.136h-4.523v-1.136h4.523Zm-3.204-2.091h1.34v8.318c0 .379.055.663.165.852a.853.853 0 0 0 .432.375c.178.061.366.091.563.091.147 0 .268-.007.363-.023l.227-.045.273 1.205a2.74 2.74 0 0 1-.381.102 2.785 2.785 0 0 1-.619.057c-.379 0-.75-.082-1.113-.245a2.21 2.21 0 0 1-.898-.744c-.235-.333-.352-.754-.352-1.261v-8.682Zm11.247 4.045-1.205.341a2.224 2.224 0 0 0-.335-.585 1.63 1.63 0 0 0-.591-.477c-.25-.125-.57-.188-.96-.188-.534 0-.979.123-1.335.37-.353.242-.529.551-.529.926 0 .333.121.596.364.789.242.194.621.355 1.136.483l1.296.319c.78.189 1.361.479 1.744.869.382.386.574.884.574 1.494 0 .5-.144.947-.432 1.341-.284.394-.682.705-1.193.932-.512.227-1.106.341-1.784.341-.89 0-1.627-.193-2.211-.58-.583-.386-.952-.95-1.107-1.693l1.272-.318c.121.47.351.822.688 1.057.341.235.786.352 1.335.352.625 0 1.121-.133 1.489-.398.371-.269.556-.591.556-.966 0-.303-.106-.556-.318-.761-.212-.208-.538-.364-.977-.466l-1.455-.341c-.799-.189-1.386-.483-1.761-.88-.371-.402-.557-.904-.557-1.506 0-.493.138-.928.415-1.307a2.82 2.82 0 0 1 1.142-.892c.485-.216 1.034-.324 1.648-.324.863 0 1.541.189 2.034.568a3.07 3.07 0 0 1 1.057 1.5Zm4.177 5.182-.091.614c-.064.432-.163.894-.295 1.386-.129.493-.263.957-.404 1.392-.14.436-.255.782-.346 1.04h-1.023l.193-.96c.08-.398.159-.843.239-1.336.083-.488.151-.988.205-1.5l.068-.636h1.454Zm13.166-5.182-1.204.341a2.253 2.253 0 0 0-.335-.585 1.63 1.63 0 0 0-.591-.477c-.25-.125-.57-.188-.96-.188-.535 0-.98.123-1.336.37-.352.242-.528.551-.528.926 0 .333.121.596.364.789.242.194.621.355 1.136.483l1.295.319c.781.189 1.362.479 1.745.869.382.386.574.884.574 1.494 0 .5-.144.947-.432 1.341-.284.394-.682.705-1.193.932-.512.227-1.107.341-1.785.341-.89 0-1.626-.193-2.21-.58-.583-.386-.952-.95-1.108-1.693l1.273-.318c.121.47.35.822.687 1.057.341.235.786.352 1.336.352.625 0 1.121-.133 1.488-.398.372-.269.557-.591.557-.966 0-.303-.106-.556-.318-.761-.212-.208-.538-.364-.977-.466l-1.455-.341c-.799-.189-1.386-.483-1.761-.88-.371-.402-.557-.904-.557-1.506 0-.493.138-.928.415-1.307a2.82 2.82 0 0 1 1.142-.892c.485-.216 1.034-.324 1.648-.324.863 0 1.541.189 2.034.568.496.379.848.879 1.056 1.5Zm5.837 6.955c-.841 0-1.566-.186-2.176-.557a3.736 3.736 0 0 1-1.403-1.568c-.326-.674-.489-1.459-.489-2.352 0-.894.163-1.682.489-2.364.329-.686.787-1.22 1.375-1.602.59-.387 1.28-.58 2.068-.58.454 0 .903.076 1.346.227a3.35 3.35 0 0 1 1.211.739c.363.337.653.784.869 1.341.216.557.324 1.242.324 2.057v.568h-6.728v-1.159h5.364c0-.493-.098-.932-.295-1.318a2.226 2.226 0 0 0-.83-.915c-.356-.224-.776-.335-1.261-.335-.534 0-.996.132-1.387.397a2.633 2.633 0 0 0-.892 1.023 3.01 3.01 0 0 0-.312 1.352v.773c0 .659.113 1.218.341 1.676.231.455.551.801.96 1.04.409.235.884.352 1.426.352.352 0 .671-.049.955-.147.288-.103.536-.254.744-.455.208-.205.369-.458.483-.761l1.295.363a2.86 2.86 0 0 1-.687 1.159c-.322.33-.72.587-1.193.773a4.425 4.425 0 0 1-1.597.273Zm6.994-11.818V239h-1.341v-11.636h1.341Zm6.115 11.818c-.84 0-1.566-.186-2.176-.557a3.736 3.736 0 0 1-1.403-1.568c-.326-.674-.489-1.459-.489-2.352 0-.894.163-1.682.489-2.364.329-.686.788-1.22 1.375-1.602.591-.387 1.28-.58 2.068-.58.455 0 .904.076 1.347.227.443.152.846.398 1.21.739.364.337.653.784.869 1.341.216.557.324 1.242.324 2.057v.568h-6.727v-1.159h5.363c0-.493-.098-.932-.295-1.318a2.219 2.219 0 0 0-.83-.915c-.356-.224-.776-.335-1.261-.335-.534 0-.996.132-1.386.397a2.617 2.617 0 0 0-.892 1.023 2.997 2.997 0 0 0-.313 1.352v.773c0 .659.114 1.218.341 1.676.231.455.551.801.96 1.04.409.235.885.352 1.426.352.353 0 .671-.049.955-.147.288-.103.536-.254.744-.455.209-.205.37-.458.483-.761l1.296.363c-.137.44-.366.826-.688 1.159-.322.33-.719.587-1.193.773a4.421 4.421 0 0 1-1.597.273Zm9.199 0c-.818 0-1.522-.193-2.113-.58a3.772 3.772 0 0 1-1.364-1.596c-.318-.678-.477-1.453-.477-2.324 0-.887.163-1.669.488-2.347.33-.682.788-1.214 1.375-1.596.591-.387 1.281-.58 2.069-.58.613 0 1.166.114 1.659.341.492.227.896.545 1.21.955.314.409.509.886.585 1.431h-1.341c-.102-.397-.329-.75-.682-1.056-.348-.311-.818-.466-1.409-.466-.522 0-.981.136-1.375.409-.39.269-.695.649-.914 1.142-.216.488-.324 1.062-.324 1.721 0 .675.106 1.262.318 1.762.216.5.519.888.909 1.164.394.277.856.415 1.386.415.349 0 .665-.06.949-.182.284-.121.525-.295.722-.522.197-.228.337-.5.42-.818h1.341a3.112 3.112 0 0 1-.562 1.392 3.158 3.158 0 0 1-1.176.977c-.485.238-1.05.358-1.694.358Zm9.188-8.909v1.136h-4.523v-1.136h4.523Zm-3.205-2.091h1.341v8.318c0 .379.055.663.165.852a.853.853 0 0 0 .432.375c.178.061.365.091.562.091.148 0 .269-.007.364-.023l.227-.045.273 1.205a2.74 2.74 0 0 1-.381.102 2.792 2.792 0 0 1-.619.057 2.7 2.7 0 0 1-1.114-.245 2.208 2.208 0 0 1-.897-.744c-.235-.333-.353-.754-.353-1.261v-8.682Zm12.29 11.023a3.554 3.554 0 0 1-1.506-.313 2.583 2.583 0 0 1-1.073-.915c-.266-.401-.398-.886-.398-1.454 0-.5.098-.906.295-1.216.197-.315.46-.561.79-.739.33-.178.693-.31 1.091-.398.401-.09.805-.162 1.21-.215.53-.069.96-.12 1.29-.154.333-.038.576-.1.727-.187.155-.087.233-.239.233-.455v-.045c0-.561-.153-.997-.46-1.307-.303-.311-.763-.466-1.381-.466-.64 0-1.142.14-1.505.42-.364.281-.62.58-.767.898l-1.273-.454c.227-.531.53-.944.909-1.239a3.398 3.398 0 0 1 1.25-.625 5.193 5.193 0 0 1 1.341-.182c.28 0 .602.034.966.102.367.065.721.199 1.062.404.345.204.631.513.858.926.227.413.341.966.341 1.659V239h-1.341v-1.182h-.068c-.091.19-.242.392-.455.608-.212.216-.494.4-.846.551-.352.152-.782.228-1.29.228Zm.205-1.205c.53 0 .977-.104 1.341-.312a2.14 2.14 0 0 0 .829-.807c.189-.33.284-.676.284-1.04v-1.227c-.057.068-.182.13-.375.187a6.143 6.143 0 0 1-.659.142c-.246.038-.487.072-.722.102-.231.027-.418.05-.562.069a5.097 5.097 0 0 0-.977.221c-.3.099-.542.248-.728.449-.181.197-.272.466-.272.807 0 .466.172.818.517 1.057.348.235.79.352 1.324.352Zm-172.748 18.227-1.204.341a2.253 2.253 0 0 0-.335-.585 1.63 1.63 0 0 0-.591-.477c-.25-.125-.57-.188-.96-.188-.535 0-.98.123-1.336.37-.352.242-.528.551-.528.926 0 .333.121.596.364.789.242.194.621.355 1.136.483l1.295.319c.781.189 1.362.479 1.745.869.382.386.574.884.574 1.494 0 .5-.144.947-.432 1.341-.284.394-.682.705-1.193.932-.512.227-1.107.341-1.785.341-.89 0-1.626-.193-2.21-.58-.583-.386-.952-.95-1.108-1.693l1.273-.318c.121.47.35.822.687 1.057.341.235.786.352 1.336.352.625 0 1.121-.133 1.488-.398.372-.269.557-.591.557-.966 0-.303-.106-.556-.318-.761-.212-.208-.538-.364-.977-.466l-1.455-.341c-.799-.189-1.386-.483-1.761-.88-.371-.402-.557-.904-.557-1.506 0-.493.138-.928.415-1.307a2.82 2.82 0 0 1 1.142-.892c.485-.216 1.034-.324 1.648-.324.863 0 1.541.189 2.034.568.496.379.848.879 1.056 1.5Zm2.178 10.046v-12h1.295v1.386h.16c.098-.151.234-.345.409-.579.178-.239.431-.451.761-.637.333-.189.784-.284 1.352-.284.735 0 1.383.184 1.943.551.561.368.999.888 1.313 1.563.314.674.472 1.469.472 2.386 0 .924-.158 1.725-.472 2.403-.314.675-.75 1.197-1.307 1.569-.557.367-1.199.551-1.926.551-.561 0-1.009-.093-1.347-.279-.337-.189-.596-.403-.778-.642a8.279 8.279 0 0 1-.42-.602h-.114v4.614h-1.341Zm1.318-7.637c0 .659.097 1.241.29 1.745.193.5.475.892.847 1.176.371.28.825.42 1.363.42.561 0 1.029-.147 1.404-.443.378-.299.662-.701.852-1.204.193-.508.29-1.072.29-1.694 0-.613-.095-1.166-.284-1.659-.186-.496-.468-.888-.847-1.176-.375-.292-.847-.437-1.415-.437-.545 0-1.004.138-1.375.414-.371.273-.651.656-.841 1.148-.189.489-.284 1.059-.284 1.71Zm12.091 4.546c-.841 0-1.566-.186-2.176-.557a3.736 3.736 0 0 1-1.403-1.568c-.326-.674-.489-1.459-.489-2.352 0-.894.163-1.682.489-2.364.329-.686.787-1.22 1.375-1.602.59-.387 1.28-.58 2.068-.58.454 0 .903.076 1.346.227a3.35 3.35 0 0 1 1.211.739c.363.337.653.784.869 1.341.216.557.324 1.242.324 2.057v.568h-6.728v-1.159h5.364c0-.493-.098-.932-.295-1.318a2.226 2.226 0 0 0-.83-.915c-.356-.224-.776-.335-1.261-.335-.534 0-.996.132-1.387.397a2.633 2.633 0 0 0-.892 1.023 3.01 3.01 0 0 0-.312 1.352v.773c0 .659.113 1.218.341 1.676.231.455.551.801.96 1.04.409.235.884.352 1.426.352.352 0 .671-.049.955-.147.288-.103.536-.254.744-.455.208-.205.369-.458.483-.761l1.295.363a2.86 2.86 0 0 1-.687 1.159c-.322.33-.72.587-1.193.773a4.425 4.425 0 0 1-1.597.273Zm9.199 0c-.818 0-1.523-.193-2.114-.58a3.77 3.77 0 0 1-1.363-1.596c-.319-.678-.478-1.453-.478-2.324 0-.887.163-1.669.489-2.347.33-.682.788-1.214 1.375-1.596.591-.387 1.28-.58 2.068-.58.614 0 1.167.114 1.659.341a3.17 3.17 0 0 1 1.211.955c.314.409.509.886.585 1.431h-1.341c-.102-.397-.33-.75-.682-1.056-.348-.311-.818-.466-1.409-.466-.523 0-.981.136-1.375.409-.39.269-.695.649-.915 1.142-.216.488-.324 1.062-.324 1.721 0 .675.106 1.262.318 1.762.216.5.519.888.91 1.164.394.277.856.415 1.386.415.348 0 .665-.06.949-.182.284-.121.524-.295.721-.522.197-.228.338-.5.421-.818h1.341a3.102 3.102 0 0 1-.563 1.392 3.142 3.142 0 0 1-1.176.977c-.485.238-1.049.358-1.693.358Zm5.392-.182v-8.727h1.341V263h-1.341Zm.682-10.182a.951.951 0 0 1-.676-.267.857.857 0 0 1-.279-.642c0-.25.093-.464.279-.642a.951.951 0 0 1 .676-.267c.261 0 .485.089.67.267.19.178.284.392.284.642s-.094.464-.284.642a.932.932 0 0 1-.67.267Zm7.001 1.455v1.136h-4.704v-1.136h4.704ZM275.252 263v-9.932c0-.5.117-.916.352-1.25a2.19 2.19 0 0 1 .915-.75c.375-.166.771-.25 1.187-.25.33 0 .599.027.807.08.208.053.364.102.466.147l-.386 1.16a5.962 5.962 0 0 0-.284-.086 1.731 1.731 0 0 0-.466-.051c-.443 0-.764.112-.961.335-.193.224-.289.552-.289.983V263h-1.341Zm5.174 0v-8.727h1.341V263h-1.341Zm.682-10.182a.955.955 0 0 1-.676-.267.86.86 0 0 1-.278-.642.86.86 0 0 1 .278-.642.955.955 0 0 1 .676-.267c.262 0 .485.089.671.267a.851.851 0 0 1 .284.642c0 .25-.095.464-.284.642a.935.935 0 0 1-.671.267Zm6.661 10.364c-.818 0-1.523-.193-2.114-.58a3.77 3.77 0 0 1-1.363-1.596c-.319-.678-.478-1.453-.478-2.324 0-.887.163-1.669.489-2.347.329-.682.788-1.214 1.375-1.596.591-.387 1.28-.58 2.068-.58.614 0 1.167.114 1.659.341.493.227.896.545 1.21.955.315.409.51.886.586 1.431h-1.341c-.103-.397-.33-.75-.682-1.056-.349-.311-.818-.466-1.409-.466-.523 0-.981.136-1.375.409-.39.269-.695.649-.915 1.142-.216.488-.324 1.062-.324 1.721 0 .675.106 1.262.318 1.762.216.5.519.888.909 1.164.394.277.857.415 1.387.415.348 0 .665-.06.949-.182.284-.121.524-.295.721-.522.197-.228.337-.5.421-.818h1.341a3.114 3.114 0 0 1-.563 1.392 3.142 3.142 0 0 1-1.176.977c-.485.238-1.049.358-1.693.358Zm13.437 0c-.818 0-1.522-.193-2.113-.58a3.772 3.772 0 0 1-1.364-1.596c-.318-.678-.477-1.453-.477-2.324 0-.887.163-1.669.488-2.347.33-.682.788-1.214 1.375-1.596.591-.387 1.281-.58 2.069-.58.613 0 1.166.114 1.659.341.492.227.896.545 1.21.955.314.409.509.886.585 1.431h-1.341c-.102-.397-.329-.75-.682-1.056-.348-.311-.818-.466-1.409-.466-.522 0-.981.136-1.375.409-.39.269-.695.649-.914 1.142-.216.488-.324 1.062-.324 1.721 0 .675.106 1.262.318 1.762.216.5.519.888.909 1.164.394.277.856.415 1.386.415.349 0 .665-.06.949-.182.284-.121.525-.295.722-.522.197-.228.337-.5.42-.818h1.341a3.112 3.112 0 0 1-.562 1.392 3.158 3.158 0 0 1-1.176.977c-.485.238-1.05.358-1.694.358Zm8.938 0c-.788 0-1.479-.188-2.074-.563-.591-.375-1.053-.899-1.386-1.574-.33-.674-.495-1.462-.495-2.363 0-.909.165-1.703.495-2.381.333-.678.795-1.204 1.386-1.579.595-.375 1.286-.563 2.074-.563.788 0 1.477.188 2.068.563.595.375 1.057.901 1.386 1.579.334.678.5 1.472.5 2.381 0 .901-.166 1.689-.5 2.363a3.758 3.758 0 0 1-1.386 1.574c-.591.375-1.28.563-2.068.563Zm0-1.205c.598 0 1.091-.153 1.477-.46a2.72 2.72 0 0 0 .858-1.21c.186-.5.278-1.042.278-1.625 0-.584-.092-1.127-.278-1.631a2.748 2.748 0 0 0-.858-1.221c-.386-.311-.879-.466-1.477-.466-.599 0-1.091.155-1.477.466-.387.31-.673.717-.858 1.221a4.672 4.672 0 0 0-.279 1.631c0 .583.093 1.125.279 1.625.185.5.471.903.858 1.21.386.307.878.46 1.477.46Zm6.001 1.023v-8.727h1.296v1.363h.113c.182-.466.476-.827.881-1.085.405-.261.892-.392 1.46-.392.576 0 1.055.131 1.438.392.386.258.687.619.903 1.085h.091c.224-.45.559-.808 1.006-1.074.447-.268.983-.403 1.608-.403.78 0 1.418.244 1.914.733.497.485.745 1.241.745 2.267V263h-1.341v-5.841c0-.644-.176-1.104-.529-1.381a1.957 1.957 0 0 0-1.244-.414c-.613 0-1.089.185-1.426.556-.337.368-.506.834-.506 1.398V263h-1.363v-5.977c0-.496-.161-.896-.483-1.199-.322-.307-.737-.46-1.245-.46-.348 0-.674.092-.977.278a2.1 2.1 0 0 0-.727.773 2.277 2.277 0 0 0-.273 1.13V263h-1.341Zm13.906 3.273v-12h1.296v1.386h.159c.099-.151.235-.345.409-.579.178-.239.432-.451.761-.637.334-.189.785-.284 1.353-.284.735 0 1.382.184 1.943.551.561.368.998.888 1.312 1.563.315.674.472 1.469.472 2.386 0 .924-.157 1.725-.472 2.403-.314.675-.75 1.197-1.306 1.569-.557.367-1.199.551-1.927.551-.56 0-1.009-.093-1.346-.279-.337-.189-.597-.403-.779-.642a8.968 8.968 0 0 1-.42-.602h-.114v4.614h-1.341Zm1.319-7.637c0 .659.096 1.241.289 1.745.194.5.476.892.847 1.176.371.28.826.42 1.364.42.56 0 1.028-.147 1.403-.443.379-.299.663-.701.852-1.204.194-.508.29-1.072.29-1.694 0-.613-.095-1.166-.284-1.659-.186-.496-.468-.888-.847-1.176-.375-.292-.846-.437-1.414-.437-.546 0-1.004.138-1.375.414-.372.273-.652.656-.841 1.148-.19.489-.284 1.059-.284 1.71Zm11.977 4.546c-.788 0-1.479-.188-2.074-.563-.591-.375-1.053-.899-1.386-1.574-.33-.674-.495-1.462-.495-2.363 0-.909.165-1.703.495-2.381.333-.678.795-1.204 1.386-1.579.595-.375 1.286-.563 2.074-.563.788 0 1.477.188 2.068.563.595.375 1.057.901 1.386 1.579.334.678.5 1.472.5 2.381 0 .901-.166 1.689-.5 2.363a3.758 3.758 0 0 1-1.386 1.574c-.591.375-1.28.563-2.068.563Zm0-1.205c.598 0 1.091-.153 1.477-.46.387-.307.673-.71.858-1.21.186-.5.279-1.042.279-1.625 0-.584-.093-1.127-.279-1.631a2.732 2.732 0 0 0-.858-1.221c-.386-.311-.879-.466-1.477-.466-.599 0-1.091.155-1.477.466-.387.31-.673.717-.858 1.221a4.672 4.672 0 0 0-.279 1.631c0 .583.093 1.125.279 1.625.185.5.471.903.858 1.21.386.307.878.46 1.477.46Zm7.342-4.227V263h-1.341v-8.727h1.296v1.363h.113c.205-.443.516-.799.932-1.068.417-.273.955-.409 1.614-.409.591 0 1.108.121 1.551.364.443.238.788.602 1.034 1.091.246.484.369 1.098.369 1.841V263h-1.34v-5.455c0-.685-.178-1.219-.535-1.602-.356-.386-.844-.579-1.465-.579-.428 0-.811.092-1.148.278a1.985 1.985 0 0 0-.79.813c-.193.356-.29.787-.29 1.295Zm11.678 5.432c-.841 0-1.566-.186-2.176-.557a3.744 3.744 0 0 1-1.404-1.568c-.325-.674-.488-1.459-.488-2.352 0-.894.163-1.682.488-2.364.33-.686.788-1.22 1.375-1.602.591-.387 1.281-.58 2.068-.58.455 0 .904.076 1.347.227.443.152.847.398 1.21.739.364.337.654.784.87 1.341.216.557.323 1.242.323 2.057v.568h-6.727v-1.159h5.364c0-.493-.099-.932-.296-1.318a2.217 2.217 0 0 0-.829-.915c-.356-.224-.777-.335-1.262-.335-.534 0-.996.132-1.386.397a2.625 2.625 0 0 0-.892 1.023 3.01 3.01 0 0 0-.312 1.352v.773c0 .659.113 1.218.34 1.676.232.455.552.801.961 1.04.409.235.884.352 1.426.352.352 0 .67-.049.954-.147.288-.103.536-.254.745-.455.208-.205.369-.458.483-.761l1.295.363a2.86 2.86 0 0 1-.687 1.159 3.35 3.35 0 0 1-1.194.773 4.416 4.416 0 0 1-1.596.273Zm6.994-5.432V263h-1.341v-8.727h1.296v1.363h.113c.205-.443.515-.799.932-1.068.417-.273.955-.409 1.614-.409.591 0 1.108.121 1.551.364.443.238.788.602 1.034 1.091.246.484.369 1.098.369 1.841V263h-1.341v-5.455c0-.685-.178-1.219-.534-1.602-.356-.386-.844-.579-1.466-.579-.428 0-.81.092-1.147.278a1.985 1.985 0 0 0-.79.813c-.193.356-.29.787-.29 1.295Zm11.814-3.477v1.136h-4.523v-1.136h4.523Zm-3.204-2.091h1.34v8.318c0 .379.055.663.165.852a.853.853 0 0 0 .432.375c.178.061.366.091.563.091.147 0 .268-.007.363-.023l.227-.045.273 1.205a2.74 2.74 0 0 1-.381.102 2.785 2.785 0 0 1-.619.057c-.379 0-.75-.082-1.113-.245a2.21 2.21 0 0 1-.898-.744c-.235-.333-.352-.754-.352-1.261v-8.682Zm13.267 11c-.788 0-1.48-.188-2.074-.563-.591-.375-1.053-.899-1.387-1.574-.329-.674-.494-1.462-.494-2.363 0-.909.165-1.703.494-2.381.334-.678.796-1.204 1.387-1.579.594-.375 1.286-.563 2.074-.563.787 0 1.477.188 2.068.563.594.375 1.057.901 1.386 1.579.333.678.5 1.472.5 2.381 0 .901-.167 1.689-.5 2.363a3.765 3.765 0 0 1-1.386 1.574c-.591.375-1.281.563-2.068.563Zm0-1.205c.598 0 1.09-.153 1.477-.46a2.72 2.72 0 0 0 .858-1.21c.185-.5.278-1.042.278-1.625 0-.584-.093-1.127-.278-1.631a2.748 2.748 0 0 0-.858-1.221c-.387-.311-.879-.466-1.477-.466-.599 0-1.091.155-1.478.466-.386.31-.672.717-.858 1.221a4.695 4.695 0 0 0-.278 1.631c0 .583.093 1.125.278 1.625.186.5.472.903.858 1.21.387.307.879.46 1.478.46Zm6.001 1.023v-8.727h1.295v1.318h.091c.159-.432.447-.782.864-1.051a2.542 2.542 0 0 1 1.409-.404c.099 0 .222.002.369.006.148.004.26.01.336.017v1.364a3.462 3.462 0 0 0-.313-.051 3.026 3.026 0 0 0-.506-.04c-.424 0-.803.089-1.136.267a2.019 2.019 0 0 0-.784.727 1.963 1.963 0 0 0-.284 1.051V263h-1.341Zm13.021.205a3.546 3.546 0 0 1-1.505-.313 2.58 2.58 0 0 1-1.074-.915c-.265-.401-.398-.886-.398-1.454 0-.5.099-.906.295-1.216.197-.315.461-.561.79-.739.33-.178.693-.31 1.091-.398.402-.09.805-.162 1.21-.215.531-.069.961-.12 1.29-.154.333-.038.576-.1.727-.187.156-.087.233-.239.233-.455v-.045c0-.561-.153-.997-.46-1.307-.303-.311-.763-.466-1.381-.466-.64 0-1.142.14-1.505.42-.364.281-.62.58-.767.898l-1.273-.454c.227-.531.53-.944.909-1.239a3.406 3.406 0 0 1 1.25-.625 5.205 5.205 0 0 1 1.341-.182c.28 0 .602.034.966.102a3.09 3.09 0 0 1 1.062.404c.345.204.631.513.858.926.228.413.341.966.341 1.659V263h-1.341v-1.182h-.068c-.091.19-.242.392-.454.608-.212.216-.495.4-.847.551-.352.152-.782.228-1.29.228Zm.205-1.205c.53 0 .977-.104 1.341-.312a2.133 2.133 0 0 0 1.113-1.847v-1.227c-.056.068-.181.13-.375.187a6.143 6.143 0 0 1-.659.142 27.7 27.7 0 0 1-.721.102c-.231.027-.419.05-.563.069a5.114 5.114 0 0 0-.977.221 1.684 1.684 0 0 0-.727.449c-.182.197-.273.466-.273.807 0 .466.172.818.517 1.057.348.235.79.352 1.324.352Zm6.243 1v-8.727h1.295v1.318h.091c.159-.432.447-.782.864-1.051a2.54 2.54 0 0 1 1.409-.404c.098 0 .221.002.369.006s.26.01.335.017v1.364a3.351 3.351 0 0 0-.312-.051 3.026 3.026 0 0 0-.506-.04c-.424 0-.803.089-1.136.267a1.954 1.954 0 0 0-1.068 1.778V263h-1.341Zm9.346.182c-.841 0-1.566-.186-2.176-.557a3.736 3.736 0 0 1-1.403-1.568c-.326-.674-.489-1.459-.489-2.352 0-.894.163-1.682.489-2.364.329-.686.788-1.22 1.375-1.602.591-.387 1.28-.58 2.068-.58.455 0 .903.076 1.347.227.443.152.846.398 1.21.739.363.337.653.784.869 1.341.216.557.324 1.242.324 2.057v.568h-6.727v-1.159h5.363c0-.493-.098-.932-.295-1.318a2.219 2.219 0 0 0-.83-.915c-.356-.224-.776-.335-1.261-.335-.534 0-.996.132-1.386.397a2.617 2.617 0 0 0-.892 1.023 2.997 2.997 0 0 0-.313 1.352v.773c0 .659.114 1.218.341 1.676.231.455.551.801.96 1.04.409.235.885.352 1.426.352.353 0 .671-.049.955-.147.288-.103.536-.254.744-.455.209-.205.37-.458.483-.761l1.296.363c-.137.44-.366.826-.688 1.159-.322.33-.72.587-1.193.773a4.425 4.425 0 0 1-1.597.273Zm8.222.023a3.554 3.554 0 0 1-1.506-.313 2.586 2.586 0 0 1-1.074-.915c-.265-.401-.397-.886-.397-1.454 0-.5.098-.906.295-1.216.197-.315.46-.561.79-.739.329-.178.693-.31 1.091-.398.401-.09.805-.162 1.21-.215.53-.069.96-.12 1.29-.154.333-.038.576-.1.727-.187.155-.087.233-.239.233-.455v-.045c0-.561-.153-.997-.46-1.307-.303-.311-.763-.466-1.381-.466-.64 0-1.142.14-1.506.42-.363.281-.619.58-.767.898l-1.272-.454c.227-.531.53-.944.909-1.239a3.398 3.398 0 0 1 1.25-.625 5.193 5.193 0 0 1 1.341-.182c.28 0 .602.034.966.102.367.065.721.199 1.062.404.345.204.631.513.858.926.227.413.341.966.341 1.659V263h-1.341v-1.182h-.068a2.36 2.36 0 0 1-.455.608c-.212.216-.494.4-.846.551-.353.152-.783.228-1.29.228Zm.204-1.205c.531 0 .978-.104 1.341-.312.368-.209.644-.478.83-.807.189-.33.284-.676.284-1.04v-1.227c-.057.068-.182.13-.375.187a6.143 6.143 0 0 1-.659.142c-.246.038-.487.072-.722.102-.231.027-.418.05-.562.069a5.097 5.097 0 0 0-.977.221c-.3.099-.542.248-.728.449-.182.197-.272.466-.272.807 0 .466.172.818.517 1.057.348.235.789.352 1.323.352Zm-199.975 25v-8.727h1.295v1.318h.091c.159-.432.447-.782.864-1.051a2.54 2.54 0 0 1 1.409-.404c.098 0 .221.002.369.006a5.5 5.5 0 0 1 .335.017v1.364a3.351 3.351 0 0 0-.312-.051 3.026 3.026 0 0 0-.506-.04c-.424 0-.803.089-1.136.267a1.954 1.954 0 0 0-1.068 1.778V287h-1.341Zm8.521.205a3.554 3.554 0 0 1-1.506-.313 2.586 2.586 0 0 1-1.074-.915c-.265-.401-.397-.886-.397-1.454 0-.5.098-.906.295-1.216.197-.315.46-.561.79-.739.329-.178.693-.31 1.091-.398.401-.09.805-.162 1.21-.215.53-.069.96-.12 1.29-.154.333-.038.576-.1.727-.187.155-.087.233-.239.233-.455v-.045c0-.561-.153-.997-.46-1.307-.303-.311-.763-.466-1.381-.466-.64 0-1.142.14-1.506.42-.363.281-.619.58-.767.898l-1.272-.454c.227-.531.53-.944.909-1.239a3.398 3.398 0 0 1 1.25-.625 5.193 5.193 0 0 1 1.341-.182c.28 0 .602.034.966.102.367.065.721.199 1.062.404.345.204.631.513.858.926.227.413.341.966.341 1.659V287h-1.341v-1.182h-.068a2.36 2.36 0 0 1-.455.608c-.212.216-.494.4-.846.551-.353.152-.783.228-1.29.228Zm.204-1.205c.531 0 .978-.104 1.341-.312.368-.209.644-.478.83-.807.189-.33.284-.676.284-1.04v-1.227c-.057.068-.182.13-.375.187a6.143 6.143 0 0 1-.659.142c-.246.038-.487.072-.722.102-.231.027-.418.05-.562.069a5.097 5.097 0 0 0-.977.221c-.3.099-.542.248-.728.449-.182.197-.272.466-.272.807 0 .466.172.818.517 1.057.348.235.789.352 1.323.352Zm10.039-7.727v1.136h-4.523v-1.136h4.523Zm-3.205-2.091h1.341v8.318c0 .379.055.663.165.852a.853.853 0 0 0 .432.375c.178.061.365.091.562.091.148 0 .269-.007.364-.023l.227-.045.273 1.205a2.74 2.74 0 0 1-.381.102 2.792 2.792 0 0 1-.619.057 2.7 2.7 0 0 1-1.114-.245 2.208 2.208 0 0 1-.897-.744c-.235-.333-.353-.754-.353-1.261v-8.682Zm6.75 5.568V287h-1.341v-11.636h1.341v4.272h.114c.204-.45.511-.808.92-1.074.413-.268.962-.403 1.648-.403.595 0 1.116.119 1.563.358.447.235.793.597 1.039 1.085.25.485.375 1.103.375 1.853V287h-1.341v-5.455c0-.693-.179-1.229-.539-1.607-.356-.383-.851-.574-1.483-.574-.44 0-.834.092-1.182.278a2.025 2.025 0 0 0-.818.813c-.197.356-.296.787-.296 1.295Zm11.772 5.432c-.841 0-1.567-.186-2.177-.557a3.742 3.742 0 0 1-1.403-1.568c-.326-.674-.489-1.459-.489-2.352 0-.894.163-1.682.489-2.364.33-.686.788-1.22 1.375-1.602.591-.387 1.28-.58 2.068-.58.455 0 .904.076 1.347.227.443.152.846.398 1.21.739.364.337.653.784.869 1.341.216.557.324 1.242.324 2.057v.568h-6.727v-1.159h5.364c0-.493-.099-.932-.296-1.318a2.223 2.223 0 0 0-.829-.915c-.356-.224-.777-.335-1.262-.335-.534 0-.996.132-1.386.397a2.617 2.617 0 0 0-.892 1.023 2.997 2.997 0 0 0-.313 1.352v.773c0 .659.114 1.218.341 1.676.231.455.551.801.96 1.04.41.235.885.352 1.427.352.352 0 .67-.049.954-.147.288-.103.536-.254.744-.455.209-.205.37-.458.483-.761l1.296.363c-.137.44-.366.826-.688 1.159-.322.33-.719.587-1.193.773a4.42 4.42 0 0 1-1.596.273Zm5.653-.182v-8.727h1.295v1.318h.091c.159-.432.447-.782.864-1.051a2.542 2.542 0 0 1 1.409-.404c.099 0 .222.002.369.006.148.004.26.01.336.017v1.364a3.462 3.462 0 0 0-.313-.051 3.026 3.026 0 0 0-.506-.04c-.424 0-.803.089-1.136.267a2.019 2.019 0 0 0-.784.727 1.963 1.963 0 0 0-.284 1.051V287h-1.341Zm14.249-8.727v1.136h-4.523v-1.136h4.523Zm-3.205-2.091h1.341v8.318c0 .379.055.663.165.852a.845.845 0 0 0 .432.375c.178.061.365.091.562.091.148 0 .269-.007.364-.023l.227-.045.273 1.205a2.74 2.74 0 0 1-.381.102 2.792 2.792 0 0 1-.619.057 2.7 2.7 0 0 1-1.114-.245 2.217 2.217 0 0 1-.898-.744c-.235-.333-.352-.754-.352-1.261v-8.682Zm6.75 5.568V287h-1.341v-11.636h1.341v4.272h.114c.204-.45.511-.808.92-1.074.413-.268.962-.403 1.648-.403.595 0 1.115.119 1.562.358a2.41 2.41 0 0 1 1.04 1.085c.25.485.375 1.103.375 1.853V287h-1.341v-5.455c0-.693-.18-1.229-.54-1.607-.356-.383-.85-.574-1.483-.574-.439 0-.833.092-1.181.278a2.034 2.034 0 0 0-.819.813c-.196.356-.295.787-.295 1.295Zm10.68 5.455a3.546 3.546 0 0 1-1.505-.313 2.58 2.58 0 0 1-1.074-.915c-.265-.401-.398-.886-.398-1.454 0-.5.099-.906.296-1.216.197-.315.46-.561.789-.739a4.2 4.2 0 0 1 1.091-.398c.402-.09.805-.162 1.211-.215.53-.069.96-.12 1.289-.154.334-.038.576-.1.728-.187.155-.087.233-.239.233-.455v-.045c0-.561-.154-.997-.461-1.307-.303-.311-.763-.466-1.38-.466-.641 0-1.142.14-1.506.42-.364.281-.619.58-.767.898l-1.273-.454c.227-.531.53-.944.909-1.239a3.406 3.406 0 0 1 1.25-.625 5.205 5.205 0 0 1 1.341-.182c.28 0 .602.034.966.102.367.065.722.199 1.063.404.344.204.63.513.858.926.227.413.34.966.34 1.659V287h-1.34v-1.182h-.069c-.091.19-.242.392-.454.608-.212.216-.495.4-.847.551-.352.152-.782.228-1.29.228Zm.205-1.205c.53 0 .977-.104 1.341-.312a2.133 2.133 0 0 0 1.114-1.847v-1.227c-.057.068-.182.13-.375.187-.19.053-.41.101-.66.142a27.7 27.7 0 0 1-.721.102c-.231.027-.419.05-.563.069a5.114 5.114 0 0 0-.977.221 1.684 1.684 0 0 0-.727.449c-.182.197-.273.466-.273.807 0 .466.172.818.517 1.057.349.235.79.352 1.324.352Zm7.584-4.25V287h-1.341v-8.727h1.295v1.363h.114c.205-.443.515-.799.932-1.068.416-.273.954-.409 1.613-.409.591 0 1.108.121 1.552.364.443.238.787.602 1.034 1.091.246.484.369 1.098.369 1.841V287h-1.341v-5.455c0-.685-.178-1.219-.534-1.602-.356-.386-.845-.579-1.466-.579-.428 0-.811.092-1.148.278a1.99 1.99 0 0 0-.789.813c-.194.356-.29.787-.29 1.295Zm16.314-3.477v1.136h-4.523v-1.136h4.523Zm-3.205-2.091h1.341v8.318c0 .379.055.663.165.852a.845.845 0 0 0 .432.375c.178.061.365.091.562.091.148 0 .269-.007.364-.023l.227-.045.273 1.205a2.74 2.74 0 0 1-.381.102 2.792 2.792 0 0 1-.619.057 2.7 2.7 0 0 1-1.114-.245 2.217 2.217 0 0 1-.898-.744c-.234-.333-.352-.754-.352-1.261v-8.682Zm6.75 5.568V287h-1.341v-11.636h1.341v4.272h.114c.204-.45.511-.808.92-1.074.413-.268.962-.403 1.648-.403.595 0 1.115.119 1.562.358a2.41 2.41 0 0 1 1.04 1.085c.25.485.375 1.103.375 1.853V287h-1.341v-5.455c0-.693-.18-1.229-.539-1.607-.357-.383-.851-.574-1.483-.574-.44 0-.834.092-1.182.278a2.025 2.025 0 0 0-.818.813c-.197.356-.296.787-.296 1.295Zm11.771 5.432c-.84 0-1.566-.186-2.176-.557a3.736 3.736 0 0 1-1.403-1.568c-.326-.674-.489-1.459-.489-2.352 0-.894.163-1.682.489-2.364.329-.686.788-1.22 1.375-1.602.591-.387 1.28-.58 2.068-.58.455 0 .904.076 1.347.227.443.152.846.398 1.21.739.364.337.653.784.869 1.341.216.557.324 1.242.324 2.057v.568h-6.727v-1.159h5.363c0-.493-.098-.932-.295-1.318a2.219 2.219 0 0 0-.83-.915c-.356-.224-.776-.335-1.261-.335-.534 0-.996.132-1.386.397a2.617 2.617 0 0 0-.892 1.023 2.997 2.997 0 0 0-.313 1.352v.773c0 .659.114 1.218.341 1.676.231.455.551.801.96 1.04.409.235.885.352 1.426.352.353 0 .671-.049.955-.147.288-.103.536-.254.744-.455.209-.205.37-.458.483-.761l1.296.363c-.137.44-.366.826-.688 1.159-.322.33-.719.587-1.193.773a4.421 4.421 0 0 1-1.597.273Zm14.04-8.909v1.136h-4.704v-1.136h4.704ZM352.877 287v-9.932c0-.5.117-.916.352-1.25a2.19 2.19 0 0 1 .915-.75c.375-.166.771-.25 1.187-.25.33 0 .599.027.807.08.208.053.364.102.466.147l-.386 1.16a5.962 5.962 0 0 0-.284-.086 1.731 1.731 0 0 0-.466-.051c-.443 0-.764.112-.961.335-.193.224-.289.552-.289.983V287h-1.341Zm10.674-3.568v-5.159h1.341V287h-1.341v-1.477h-.09c-.205.443-.523.82-.955 1.13-.432.307-.977.461-1.636.461-.546 0-1.031-.12-1.455-.358-.424-.243-.757-.606-1-1.091-.242-.489-.364-1.104-.364-1.847v-5.545h1.341v5.454c0 .637.178 1.144.534 1.523.36.379.819.568 1.375.568.334 0 .673-.085 1.018-.256.348-.17.64-.431.875-.784.238-.352.357-.801.357-1.346Zm5.138-8.068V287h-1.341v-11.636h1.341Zm3.797 0V287h-1.341v-11.636h1.341Zm13.138 4.863-1.205.341a2.197 2.197 0 0 0-.335-.585 1.63 1.63 0 0 0-.591-.477c-.25-.125-.57-.188-.96-.188-.534 0-.979.123-1.335.37-.352.242-.529.551-.529.926 0 .333.122.596.364.789.242.194.621.355 1.136.483l1.296.319c.78.189 1.362.479 1.744.869.383.386.574.884.574 1.494 0 .5-.144.947-.432 1.341-.284.394-.682.705-1.193.932-.511.227-1.106.341-1.784.341-.89 0-1.627-.193-2.21-.58-.584-.386-.953-.95-1.108-1.693l1.272-.318c.122.47.351.822.688 1.057.341.235.786.352 1.335.352.625 0 1.121-.133 1.489-.398.371-.269.557-.591.557-.966 0-.303-.106-.556-.319-.761-.212-.208-.537-.364-.977-.466l-1.454-.341c-.8-.189-1.387-.483-1.762-.88-.371-.402-.557-.904-.557-1.506 0-.493.139-.928.415-1.307a2.827 2.827 0 0 1 1.142-.892c.485-.216 1.034-.324 1.648-.324.864 0 1.542.189 2.034.568.496.379.849.879 1.057 1.5Zm5.723 6.955c-.818 0-1.523-.193-2.114-.58a3.77 3.77 0 0 1-1.363-1.596c-.319-.678-.478-1.453-.478-2.324 0-.887.163-1.669.489-2.347.33-.682.788-1.214 1.375-1.596.591-.387 1.28-.58 2.068-.58.614 0 1.167.114 1.659.341a3.17 3.17 0 0 1 1.211.955c.314.409.509.886.585 1.431h-1.341c-.102-.397-.33-.75-.682-1.056-.348-.311-.818-.466-1.409-.466-.523 0-.981.136-1.375.409-.39.269-.695.649-.915 1.142-.216.488-.324 1.062-.324 1.721 0 .675.106 1.262.318 1.762.216.5.519.888.91 1.164.394.277.856.415 1.386.415.348 0 .665-.06.949-.182.284-.121.524-.295.721-.522.197-.228.338-.5.421-.818h1.341a3.102 3.102 0 0 1-.563 1.392 3.142 3.142 0 0 1-1.176.977c-.485.238-1.049.358-1.693.358Zm5.392-.182v-8.727h1.295v1.318h.091c.159-.432.447-.782.864-1.051a2.542 2.542 0 0 1 1.409-.404c.099 0 .222.002.369.006.148.004.26.01.336.017v1.364a3.462 3.462 0 0 0-.313-.051 3.026 3.026 0 0 0-.506-.04c-.424 0-.803.089-1.136.267a2.019 2.019 0 0 0-.784.727 1.963 1.963 0 0 0-.284 1.051V287h-1.341Zm9.347.182c-.841 0-1.567-.186-2.177-.557a3.742 3.742 0 0 1-1.403-1.568c-.326-.674-.489-1.459-.489-2.352 0-.894.163-1.682.489-2.364.33-.686.788-1.22 1.375-1.602.591-.387 1.28-.58 2.068-.58.455 0 .904.076 1.347.227.443.152.846.398 1.21.739.364.337.653.784.869 1.341.216.557.324 1.242.324 2.057v.568h-6.727v-1.159h5.364c0-.493-.099-.932-.296-1.318a2.223 2.223 0 0 0-.829-.915c-.356-.224-.777-.335-1.262-.335-.534 0-.996.132-1.386.397a2.617 2.617 0 0 0-.892 1.023 2.997 2.997 0 0 0-.313 1.352v.773c0 .659.114 1.218.341 1.676.231.455.551.801.96 1.04.41.235.885.352 1.427.352.352 0 .67-.049.954-.147.288-.103.536-.254.744-.455.209-.205.37-.458.483-.761l1.296.363c-.137.44-.366.826-.688 1.159-.322.33-.719.587-1.193.773a4.42 4.42 0 0 1-1.596.273Zm9.312 0c-.841 0-1.566-.186-2.176-.557a3.736 3.736 0 0 1-1.403-1.568c-.326-.674-.489-1.459-.489-2.352 0-.894.163-1.682.489-2.364.329-.686.787-1.22 1.375-1.602.59-.387 1.28-.58 2.068-.58.454 0 .903.076 1.346.227a3.35 3.35 0 0 1 1.211.739c.363.337.653.784.869 1.341.216.557.324 1.242.324 2.057v.568h-6.728v-1.159h5.364c0-.493-.098-.932-.295-1.318a2.226 2.226 0 0 0-.83-.915c-.356-.224-.776-.335-1.261-.335-.534 0-.996.132-1.387.397a2.633 2.633 0 0 0-.892 1.023 3.01 3.01 0 0 0-.312 1.352v.773c0 .659.113 1.218.341 1.676.231.455.551.801.96 1.04.409.235.884.352 1.426.352.352 0 .671-.049.955-.147.288-.103.536-.254.744-.455.208-.205.369-.458.483-.761l1.295.363a2.86 2.86 0 0 1-.687 1.159c-.322.33-.72.587-1.193.773a4.425 4.425 0 0 1-1.597.273Zm6.994-5.432V287h-1.341v-8.727h1.296v1.363h.114c.204-.443.515-.799.931-1.068.417-.273.955-.409 1.614-.409.591 0 1.108.121 1.551.364.443.238.788.602 1.034 1.091.246.484.37 1.098.37 1.841V287h-1.341v-5.455c0-.685-.178-1.219-.534-1.602-.356-.386-.845-.579-1.466-.579-.428 0-.811.092-1.148.278a1.992 1.992 0 0 0-.79.813c-.193.356-.29.787-.29 1.295Zm8.996 5.341c-.28 0-.521-.1-.721-.301a.986.986 0 0 1-.302-.722c0-.28.101-.521.302-.721a.982.982 0 0 1 .721-.302c.28 0 .521.101.722.302.2.2.301.441.301.721a.964.964 0 0 1-.142.512c-.091.155-.214.28-.369.375a.985.985 0 0 1-.512.136Z"/><g filter="url(#g)"><ellipse cx="115.12" cy="235.641" fill="#000" fill-opacity=".5" rx="57.588" ry="55.545"/></g><path fill="#1A1A1A" d="M180.851 176.73c-3.241-12.147-10.854-29.288-38.045-42.076-44.924-21.124-75.222 23.742-75.222 23.742-12.105-1.332-18.668 3.462-21.292 14.734-2.246 9.637.783 28.466 2.42 35.681l8.954 49.072 8.641-43.549c8.497-28.647 21.412-40.314 21.412-40.314l41.051-3.366 43.536 83.057 8.47-49.149c1.073-6.233 1.522-12.584 1.181-18.909-.197-3.65-.549-6.828-1.106-8.923Z"/><path fill="url(#h)" d="M180.851 176.73c-3.241-12.147-10.854-29.288-38.045-42.076-44.924-21.124-75.222 23.742-75.222 23.742-12.105-1.332-18.668 3.462-21.292 14.734-2.246 9.637.783 28.466 2.42 35.681l8.954 49.072 8.641-43.549c8.497-28.647 21.412-40.314 21.412-40.314l41.051-3.366 43.536 83.057 8.47-49.149c1.073-6.233 1.522-12.584 1.181-18.909-.197-3.65-.549-6.828-1.106-8.923Z"/><path fill="#F3A396" d="M190.485 247.784c0-7.437-6.029-13.466-13.465-13.466h-6.733c-7.968 0-14.427 6.46-14.427 14.428v5.386c0 7.649 6.201 13.85 13.85 13.85h.577c11.155 0 20.198-9.043 20.198-20.198Z"/><path fill="url(#i)" fill-opacity=".2" d="M190.485 247.784c0-7.437-6.029-13.466-13.465-13.466h-6.733c-7.968 0-14.427 6.46-14.427 14.428v5.386c0 7.649 6.201 13.85 13.85 13.85h.577c11.155 0 20.198-9.043 20.198-20.198Z"/><g filter="url(#j)"><ellipse cx="175.435" cy="251.205" fill="#D26665" fill-opacity=".5" rx="7.815" ry="11.181" transform="rotate(21.735 175.435 251.205)"/></g><path fill="#F3A396" d="M39 247.784c0-7.437 6.029-13.466 13.465-13.466h6.733c7.968 0 14.427 6.46 14.427 14.428v5.386c0 7.649-6.2 13.85-13.85 13.85h-.577c-11.155 0-20.198-9.043-20.198-20.198Z"/><path fill="url(#k)" fill-opacity=".2" d="M39 247.784c0-7.437 6.029-13.466 13.465-13.466h6.733c7.968 0 14.427 6.46 14.427 14.428v5.386c0 7.649-6.2 13.85-13.85 13.85h-.577c-11.155 0-20.198-9.043-20.198-20.198Z"/><g filter="url(#l)"><ellipse cx="7.815" cy="11.181" fill="#D26665" fill-opacity=".5" rx="7.815" ry="11.181" transform="scale(-1 1) rotate(21.735 -648.254 -29.932)"/></g><path fill="#F3A396" d="M54.63 216.795c0-5.611 0-8.416.26-10.777 2.218-20.154 18.13-36.067 38.285-38.286 2.361-.26 5.166-.26 10.777-.26h21.34c5.611 0 8.417 0 10.777.26 20.155 2.219 36.068 18.132 38.286 38.286.26 2.361.26 5.166.26 10.777v22.212c0 33.133-26.86 59.993-59.993 59.993s-59.993-26.86-59.993-59.993v-22.212Z"/><path fill="url(#m)" fill-opacity=".2" d="M54.63 216.795c0-5.611 0-8.416.26-10.777 2.218-20.154 18.13-36.067 38.285-38.286 2.361-.26 5.166-.26 10.777-.26h21.34c5.611 0 8.417 0 10.777.26 20.155 2.219 36.068 18.132 38.286 38.286.26 2.361.26 5.166.26 10.777v22.212c0 33.133-26.86 59.993-59.993 59.993s-59.993-26.86-59.993-59.993v-22.212Z"/><path fill="#1A1A1A" d="M88.774 232.579a4.994 4.994 0 0 1 4.994-4.994h1.073a4.994 4.994 0 0 1 4.994 4.994v2.46a5.53 5.53 0 1 1-11.06 0v-2.46ZM128.448 232.579a4.994 4.994 0 0 1 4.994-4.994h1.073a4.994 4.994 0 0 1 4.994 4.994v2.46a5.53 5.53 0 1 1-11.061 0v-2.46Z"/><ellipse cx="113.901" cy="252.232" fill="#D26665" rx="8.055" ry="2.525"/><path fill="#1A1A1A" fill-rule="evenodd" d="M90.38 215.725c-1.252.266-2.365.708-3.996 1.578a3.608 3.608 0 0 1-3.395-6.365c1.976-1.054 3.748-1.814 5.893-2.27 2.077-.441 4.337-.559 7.226-.559a3.607 3.607 0 0 1 0 7.213c-2.76 0-4.409.123-5.728.403Z" clip-rule="evenodd"/><path fill="#1A1A1A" fill-rule="evenodd" d="M90.198 215.939c-1.232.196-2.295.553-3.814 1.363a3.606 3.606 0 1 1-3.395-6.365c2.088-1.113 3.91-1.778 6.075-2.122 2.027-.323 4.269-.345 7.044-.345a3.606 3.606 0 1 1 0 7.213c-2.875 0-4.541.038-5.91.256ZM137.783 215.725c1.252.266 2.365.708 3.996 1.578a3.608 3.608 0 0 0 3.395-6.365c-1.976-1.054-3.748-1.814-5.892-2.27-2.078-.441-4.337-.559-7.227-.559a3.607 3.607 0 0 0 0 7.213c2.761 0 4.409.123 5.728.403Z" clip-rule="evenodd"/><path fill="#1A1A1A" fill-rule="evenodd" d="M137.965 215.939c1.233.196 2.295.553 3.814 1.363a3.606 3.606 0 1 0 3.395-6.365c-2.088-1.113-3.911-1.778-6.074-2.122-2.028-.323-4.27-.345-7.045-.345a3.606 3.606 0 1 0 0 7.213c2.876 0 4.541.038 5.91.256Z" clip-rule="evenodd"/><path fill="#1A1A1A" d="M166.995 165.074c-1.491.51-49.524-13.231-49.524-13.231l-42.157 13.231.023.065c-37.064 10.349-20.729 46.577-20.729 46.577 15.25-8.085 14.126-24.655 17.019-36.585 6.743 9.152 32.576 25.821 64.357 25.188 32.547-.648 36.227-13.733 36.227-13.733s-3.725-22.026-5.216-21.512Z"/><path fill="url(#n)" d="M166.995 165.074c-1.491.51-49.524-13.231-49.524-13.231l-42.157 13.231.023.065c-37.064 10.349-20.729 46.577-20.729 46.577 15.25-8.085 14.126-24.655 17.019-36.585 6.743 9.152 32.576 25.821 64.357 25.188 32.547-.648 36.227-13.733 36.227-13.733s-3.725-22.026-5.216-21.512Z"/><path fill="#613030" d="M136.874 263.555c-.78-.856-10.455-1.344-22.924-1.344-12.468 0-22.143.488-22.924 1.344-.875.555 4.617 20.244 22.924 20.244 18.311 0 23.8-19.686 22.924-20.244Z"/><mask id="o" width="47" height="22" x="90" y="262" maskUnits="userSpaceOnUse" style="mask-type:alpha"><path fill="#000" d="M136.874 263.555c-.78-.856-10.455-1.344-22.924-1.344-12.468 0-22.143.488-22.924 1.344-.875.555 4.617 20.244 22.924 20.244 18.311 0 23.8-19.686 22.924-20.244Z"/></mask><g mask="url(#o)"><path fill="#D23D25" d="M133.834 276.962c-4.985 7.806-12.395 15.243-20.521 14.914-8.822-.326-15.317-7.397-19.25-14.139 6.879-6.029 25.089-12.862 39.771-.775Z"/><path fill="#fff" d="M131.224 258.496c-.131 5.489-1.375 5.489-1.375 5.489-5.126 2.567-24.721 4.9-32.109 0-.783-.519-.92-3.11-1.067-4.873.396-.344.847-.503 1.156-.503 12.233-.729 27.848-1.872 33.395-.113Z"/></g><defs><linearGradient id="c" x1="30.342" x2="30.342" y1="27.749" y2="28.436" gradientUnits="userSpaceOnUse"><stop stop-color="#F3A396"/><stop offset="1" stop-color="#D26665"/></linearGradient><linearGradient id="d" x1="21.675" x2="21.675" y1="27.749" y2="28.436" gradientUnits="userSpaceOnUse"><stop stop-color="#F3A396"/><stop offset="1" stop-color="#D26665"/></linearGradient><linearGradient id="e" x1="26" x2="26" y1="28.052" y2="30.736" gradientUnits="userSpaceOnUse"><stop stop-color="#F3A396"/><stop offset="1" stop-color="#D26665"/></linearGradient><linearGradient id="h" x1="113.781" x2="113.781" y1="181.178" y2="211.355" gradientUnits="userSpaceOnUse"><stop stop-color="#1A1A1A"/><stop offset="1" stop-color="#4A4A4A"/></linearGradient><linearGradient id="i" x1="173.173" x2="173.173" y1="258.72" y2="267.982" gradientUnits="userSpaceOnUse"><stop stop-color="#F3A396"/><stop offset="1" stop-color="#D26665"/></linearGradient><linearGradient id="k" x1="56.313" x2="56.313" y1="258.72" y2="267.982" gradientUnits="userSpaceOnUse"><stop stop-color="#F3A396"/><stop offset="1" stop-color="#D26665"/></linearGradient><linearGradient id="m" x1="114.622" x2="114.622" y1="262.812" y2="299" gradientUnits="userSpaceOnUse"><stop stop-color="#F3A396"/><stop offset="1" stop-color="#D26665"/></linearGradient><linearGradient id="n" x1="111.617" x2="111.617" y1="181.9" y2="211.716" gradientUnits="userSpaceOnUse"><stop stop-color="#1A1A1A"/><stop offset="1" stop-color="#4A4A4A"/></linearGradient><filter id="b" width="12.822" height="12.519" x="19.659" y="19.818" color-interpolation-filters="sRGB" filterUnits="userSpaceOnUse"><feFlood flood-opacity="0" result="BackgroundImageFix"/><feBlend in="SourceGraphic" in2="BackgroundImageFix" result="shape"/><feGaussianBlur result="effect1_foregroundBlur_422_3359" stdDeviation="1.07"/></filter><filter id="g" width="172.885" height="168.798" x="28.677" y="151.242" color-interpolation-filters="sRGB" filterUnits="userSpaceOnUse"><feFlood flood-opacity="0" result="BackgroundImageFix"/><feBlend in="SourceGraphic" in2="BackgroundImageFix" result="shape"/><feGaussianBlur result="effect1_foregroundBlur_422_3359" stdDeviation="14.427"/></filter><filter id="j" width="26.335" height="31.187" x="162.267" y="235.612" color-interpolation-filters="sRGB" filterUnits="userSpaceOnUse"><feFlood flood-opacity="0" result="BackgroundImageFix"/><feBlend in="SourceGraphic" in2="BackgroundImageFix" result="shape"/><feGaussianBlur result="effect1_foregroundBlur_422_3359" stdDeviation="2.405"/></filter><filter id="l" width="26.335" height="31.187" x="40.883" y="235.612" color-interpolation-filters="sRGB" filterUnits="userSpaceOnUse"><feFlood flood-opacity="0" result="BackgroundImageFix"/><feBlend in="SourceGraphic" in2="BackgroundImageFix" result="shape"/><feGaussianBlur result="effect1_foregroundBlur_422_3359" stdDeviation="2.405"/></filter><clipPath id="a"><rect width="16" height="16" x="18" y="17" fill="#fff" rx="2"/></clipPath></defs></svg>