<?xml version="1.0" standalone="no"?>
<svg xmlns:xlink="http://www.w3.org/1999/xlink" id="wave" style="transform:rotate(0deg); transition: 0.3s" viewBox="0 0 1440 160" version="1.1" xmlns="http://www.w3.org/2000/svg"><defs><linearGradient id="sw-gradient-0" x1="0" x2="0" y1="1" y2="0"><stop stop-color="rgba(178, 245, 234, 1)" offset="0%"/><stop stop-color="rgba(178, 245, 234, 1)" offset="100%"/></linearGradient></defs><path style="transform:translate(0, 0px); opacity:1" fill="url(#sw-gradient-0)" d="M0,64L80,74.7C160,85,320,107,480,104C640,101,800,75,960,74.7C1120,75,1280,101,1440,117.3C1600,133,1760,139,1920,138.7C2080,139,2240,133,2400,130.7C2560,128,2720,128,2880,117.3C3040,107,3200,85,3360,82.7C3520,80,3680,96,3840,98.7C4000,101,4160,91,4320,72C4480,53,4640,27,4800,29.3C4960,32,5120,64,5280,80C5440,96,5600,96,5760,90.7C5920,85,6080,75,6240,69.3C6400,64,6560,64,6720,53.3C6880,43,7040,21,7200,16C7360,11,7520,21,7680,34.7C7840,48,8000,64,8160,80C8320,96,8480,112,8640,112C8800,112,8960,96,9120,77.3C9280,59,9440,37,9600,34.7C9760,32,9920,48,10080,58.7C10240,69,10400,75,10560,64C10720,53,10880,27,11040,21.3C11200,16,11360,32,11440,40L11520,48L11520,160L11440,160C11360,160,11200,160,11040,160C10880,160,10720,160,10560,160C10400,160,10240,160,10080,160C9920,160,9760,160,9600,160C9440,160,9280,160,9120,160C8960,160,8800,160,8640,160C8480,160,8320,160,8160,160C8000,160,7840,160,7680,160C7520,160,7360,160,7200,160C7040,160,6880,160,6720,160C6560,160,6400,160,6240,160C6080,160,5920,160,5760,160C5600,160,5440,160,5280,160C5120,160,4960,160,4800,160C4640,160,4480,160,4320,160C4160,160,4000,160,3840,160C3680,160,3520,160,3360,160C3200,160,3040,160,2880,160C2720,160,2560,160,2400,160C2240,160,2080,160,1920,160C1760,160,1600,160,1440,160C1280,160,1120,160,960,160C800,160,640,160,480,160C320,160,160,160,80,160L0,160Z"/></svg>