<?xml version="1.0" standalone="no"?>
<svg xmlns:xlink="http://www.w3.org/1999/xlink" id="wave" style="transform:rotate(180deg); transition: 0.3s" viewBox="0 0 1440 100" version="1.1" xmlns="http://www.w3.org/2000/svg"><defs><linearGradient id="sw-gradient-0" x1="0" x2="0" y1="1" y2="0"><stop stop-color="rgba(178, 245, 234, 1)" offset="0%"/><stop stop-color="rgba(178, 245, 234, 1)" offset="100%"/></linearGradient></defs><path style="transform:translate(0, 0px); opacity:1" fill="url(#sw-gradient-0)" d="M0,90L48,81.7C96,73,192,57,288,41.7C384,27,480,13,576,15C672,17,768,33,864,43.3C960,53,1056,57,1152,51.7C1248,47,1344,33,1440,35C1536,37,1632,53,1728,65C1824,77,1920,83,2016,71.7C2112,60,2208,30,2304,16.7C2400,3,2496,7,2592,8.3C2688,10,2784,10,2880,8.3C2976,7,3072,3,3168,6.7C3264,10,3360,20,3456,23.3C3552,27,3648,23,3744,25C3840,27,3936,33,4032,35C4128,37,4224,33,4320,31.7C4416,30,4512,30,4608,30C4704,30,4800,30,4896,38.3C4992,47,5088,63,5184,66.7C5280,70,5376,60,5472,56.7C5568,53,5664,57,5760,53.3C5856,50,5952,40,6048,40C6144,40,6240,50,6336,58.3C6432,67,6528,73,6624,76.7C6720,80,6816,80,6864,80L6912,80L6912,100L6864,100C6816,100,6720,100,6624,100C6528,100,6432,100,6336,100C6240,100,6144,100,6048,100C5952,100,5856,100,5760,100C5664,100,5568,100,5472,100C5376,100,5280,100,5184,100C5088,100,4992,100,4896,100C4800,100,4704,100,4608,100C4512,100,4416,100,4320,100C4224,100,4128,100,4032,100C3936,100,3840,100,3744,100C3648,100,3552,100,3456,100C3360,100,3264,100,3168,100C3072,100,2976,100,2880,100C2784,100,2688,100,2592,100C2496,100,2400,100,2304,100C2208,100,2112,100,2016,100C1920,100,1824,100,1728,100C1632,100,1536,100,1440,100C1344,100,1248,100,1152,100C1056,100,960,100,864,100C768,100,672,100,576,100C480,100,384,100,288,100C192,100,96,100,48,100L0,100Z"/></svg>